<svg xmlns="http://www.w3.org/2000/svg" viewBox="0 0 254 177"><defs><style>.cls-1{fill:#979797;}</style></defs><title>Asset 2</title><g id="Layer_2" data-name="Layer 2"><g id="Layer_1-2" data-name="Layer 1"><path class="cls-1" d="M0,114V0H254V114ZM245.92,23.83c-9.22-9.09-18.77-6.16-23.91-1.65a16.86,16.86,0,0,0-2.59,22.56A15.52,15.52,0,0,0,228.77,51a17.64,17.64,0,0,0,17-4.92c.43,8-1.36,11.82-6.77,13.38-6,1.73-12,1.66-16.44-3.69-1.67-2-3.29-2.14-5.44-1.14,2.38,4.64,3.43,5.9,6.53,7.48a21.52,21.52,0,0,0,17,1.07c5.35-1.75,8.95-5.63,9.22-11.27.49-10.29.34-20.61.46-30.92,0-.17,0-.41,0-.48-.65-.56-1.26-1.36-2-1.57a1.52,1.52,0,0,0-2.09,1.45C246.06,21.33,246,22.31,245.92,23.83ZM25.09,6.83c-.85.72-1,.8-1.1.94Q14.15,28.43,4.33,49.12c-.79,1.68-.13,2.4,1.73,2.36A3.45,3.45,0,0,0,9.41,49c1.39-3.19,3.07-6.27,4.39-9.49.83-2,2.09-2.68,4.2-2.62,4.32.12,8.66.14,13,0,2.29-.07,3.67.55,4.56,2.84,1.2,3.09,2.8,6,4.28,9s1.46,2.84,5.72,2Zm93.83,45.88a12.94,12.94,0,0,0,8.19-3.19c5.26-4.69,5.66-11.67.59-17.25-2.55-2.8-5.78-5-8.64-7.49a43.65,43.65,0,0,1-5.31-5.18,5.35,5.35,0,0,1-.23-6.12c1.16-2.12,3.17-2.8,5.49-2.74,2.91.08,5,1.65,6.69,3.81.7.9,1.24,1.37,2.42.63,2.28-1.42,2.49-2.18.61-4.17A21,21,0,0,0,125,7.77a11.18,11.18,0,0,0-14.47,2c-3.47,4-3.33,9.73.57,14a67.11,67.11,0,0,0,5.59,4.94A97.82,97.82,0,0,1,124,35.44c3,3.31,3,7.56.37,10.32a8.25,8.25,0,0,1-11.28.36,18.91,18.91,0,0,1-2.92-3.38c-.74-1.05-1.29-1.9-2.7-.9-1.18.83-2.18,1.59-1.16,3.19C109.28,49.64,113.19,52.67,118.92,52.71Zm36.3-.49c8.06.73,17.22-5.86,17.33-16.79a16.88,16.88,0,0,0-16.72-17.56c-9.74,0-17.77,7.56-17.63,17.2C138.38,46.2,147.41,52.84,155.22,52.21Zm12.35,39.52v0c3.5,0,7,.08,10.49,0,2.6-.08,2.71-.34,2.24-3.06a14.48,14.48,0,0,0-12.59-12.37,14.33,14.33,0,0,0-15.19,8.16c-3.49,7-1.16,15.89,5.23,19.87,6.23,3.87,15.43,2.31,19.89-3.39.31-.39.59-.81.88-1.22.64-.9,1-1.94-.2-2.48a3.12,3.12,0,0,0-2.52.16c-.8.49-1.2,1.58-1.91,2.27-6,5.91-16.33,3.45-18.69-4.42-.76-2.54-.25-3.39,2.36-3.46C160.91,91.66,164.24,91.73,167.57,91.73ZM4.79,85.57c-.85,12.87,10,22.95,24.21,20.87,4.75-.7,9-2.43,12.22-6.09a2.22,2.22,0,0,0,.36-2c-.65-.9-1.61-1.83-2.91-.79-.52.41-1,.91-1.48,1.34a17.85,17.85,0,0,1-13,4,16.27,16.27,0,0,1-15.27-15C8.42,78.58,14,71.21,22.65,70c5.7-.82,11,.22,15.15,4.53,1.24,1.28,2.31,1.9,3.66.31s-.23-2.39-1.07-3.22C35.54,66.81,29.56,65.45,23,66,12.84,66.75,4.21,75.93,4.79,85.57Zm114.75,15.74c7.85,6.21,15.57,6.56,21.27,1.17A15.16,15.16,0,0,0,143.16,83,14.8,14.8,0,0,0,135,76.76c-6-1.85-10.83.65-15.69,4.49,0-4.3.08-8,0-11.6,0-1.43.85-3.78-1.95-3.61-2.33.15-1.52,2.23-1.53,3.52-.07,10.8,0,21.6,0,32.4a6.14,6.14,0,0,0,.18,2.45,2.7,2.7,0,0,0,1.73,1.27,1.79,1.79,0,0,0,1.43-1A18.13,18.13,0,0,0,119.53,101.32ZM72.92,81c-8.1-6.33-15.44-6.37-21.43-.47a15.3,15.3,0,0,0-1.37,20c5.29,6.89,12.88,7.44,22.55,1.62a3,3,0,0,1,.36.9c.07,1.37,0,2.73,2,2.68S77,104.38,77,103q0-8.47,0-16.95c0-2.49.08-5-.08-7.47C76.86,78,76,77,75.52,77a3.29,3.29,0,0,0-2.27,1.15C72.84,78.76,73,79.77,72.92,81ZM244.71,101.5c.1.9.18,1.38.2,1.86,0,1.18-.1,2.42,1.66,2.45,2,0,2-1.28,1.95-2.7,0-4.81,0-9.63,0-14.44,0-3.32.11-6.64-.07-10,0-.62-1.08-1.41-1.82-1.68-.34-.12-1.3.72-1.57,1.31a10.31,10.31,0,0,0-.36,2.82c-8.56-6.58-16.3-6.5-22.1-.13a15.37,15.37,0,0,0,.33,20.82C228.42,107.82,236.41,107.82,244.71,101.5ZM184.4,24c0-1.21-.05-1.86,0-2.5.13-1.39.28-2.67-1.77-2.73s-2.43,1-2.42,2.8c.08,9,.07,18,0,27,0,1.75.33,2.93,2.43,2.82s1.73-1.52,1.76-2.85c.11-5.32.22-10.64.43-16a11,11,0,0,1,5-8.76c6.28-4.49,13.48-1.53,14.38,6.12.52,4.44.38,9,.5,13.45.05,2,0,4,0,6,0,1.51.83,2,2.23,2,1.15,0,1.92-.45,1.9-1.72-.15-7.14.24-14.35-.59-21.42-1.24-10.56-12.18-12.55-19-8.15C187.81,21,186.5,22.3,184.4,24ZM88.13,81c-.23-.51-.49-.8-.47-1.06.11-1.5.55-3.11-1.92-3-2.05.06-1.85,1.49-1.85,2.8q0,11.48,0,23a4.66,4.66,0,0,0,.2,2c.24.49.93,1.1,1.38,1.07.71,0,1.76-.43,2-1a7.93,7.93,0,0,0,.25-2.94c.07-4.16.11-8.31.16-12.47.05-3.68,2-6.31,4.91-8.21,5.36-3.54,11.48-.68,12.2,5.65a60.75,60.75,0,0,1,.16,6.48q0,5.24,0,10.48c0,1.47.77,2.32,2.13,2a2.63,2.63,0,0,0,1.64-1.87c.07-5.82.33-11.67-.18-17.45-1-10.94-11.72-12.52-18-7.53C89.86,79.55,89,80.27,88.13,81ZM74.89,36.82h0c0,4,0,8,0,12,0,1.5.28,2.59,2.17,2.56s2-1.29,2-2.7c0-1,0-2,0-3,0-6.5,0-13,0-19.49,0-3.64,0-3.64,3.73-4,1.26-.11,2.93.32,2.91-1.74s-1.7-1.6-3-1.71a5.53,5.53,0,0,0-1,0c-2.24.21-2.86-.89-2.74-3,.14-2.49,0-5,0-7.49,0-1.27-.86-1.64-2-1.65S75,6.92,75,8.23c-.06,1.5-.06,3-.09,4.49,0,1.66.5,3.7-.28,4.87-.65,1-2.86.83-4.32,1.36-.48.17-1.13.91-1.08,1.31a2.88,2.88,0,0,0,1.1,1.83,3.44,3.44,0,0,0,1.95.14c2.31-.16,2.73,1.09,2.67,3.1C74.8,29.15,74.89,33,74.89,36.82ZM51,34.92c0,4.82-.07,9.64.08,14.46a2.72,2.72,0,0,0,1.68,1.87,1.74,1.74,0,0,0,2.47-1.61c.07-1,0-2,.07-3,.14-4.65.27-9.29.43-13.94a13.07,13.07,0,0,1,2.87-8.31c1.63-1.93,3.73-2.47,6.24-2.4.7,0,1.45-1.5,2.17-2.31-.87-.58-1.7-1.58-2.63-1.68-3-.32-5.38,1.19-7.38,3.4-.94,1-1.78.85-1.76-.68,0-2.07-1.39-1.94-2.72-1.86-1.71.11-1.5,1.46-1.51,2.6C51,25.94,51,30.43,51,34.92Zm155.5,45c-.78-1.23-.22-3.29-2.57-3-2,.25-1.82,1.57-1.82,2.9,0,7.82,0,15.64,0,23.46,0,1.56.36,2.6,2.19,2.52,1.67-.08,1.74-1.28,1.76-2.46,0-3.33-.12-6.66.05-10A40,40,0,0,1,207.21,85c.77-2.86,2.66-5.1,6-5,1.9.05,3-.88,3-2.47,0-.41-2.18-1.18-3.38-1.22a6.42,6.42,0,0,0-3.23,1.11A26.22,26.22,0,0,0,206.55,79.89ZM190,80.22c.24-2.4-.54-3.66-2.7-3.22-2,.41-1.23,2.1-1.25,3.25-.07,7.33,0,14.66,0,22,0,.67-.23,1.51.09,2a3.72,3.72,0,0,0,2.09,1.48c.45.08,1.38-.79,1.57-1.4a11,11,0,0,0,.11-3,116.37,116.37,0,0,1,.25-12,22.42,22.42,0,0,1,2.58-7.36c1-2,3.15-2.08,5.26-2.1.64,0,1.27-1.25,1.91-1.92-.69-.56-1.39-1.59-2.07-1.58a10.66,10.66,0,0,0-4.25,1C192.4,77.91,191.5,79,190,80.22Z"/><path class="cls-1" d="M254,151H0v-4c1.66.07,3.31.21,5,.21q121.78,0,243.56,0c1.82,0,3.65-.14,5.47-.21Z"/><path class="cls-1" d="M0,122H254v4c-1.33,0-2.66-.11-4-.11H4c-1.33,0-2.66.07-4,.11Z"/><path class="cls-1" d="M0,173c1.66.08,3.31.22,5,.22q121.53,0,243.06,0c2,0,4-.14,6-.22v4H0Z"/><path class="cls-1" d="M0,160H254v4c-1.82-.07-3.65-.21-5.47-.21q-121.53,0-243.06,0c-1.82,0-3.65.14-5.47.21Z"/><path class="cls-1" d="M0,135c1.66-.05,3.32-.15,5-.15H250c1.33,0,2.66.1,4,.15v3c-2,.09-4,.25-6,.25q-121.29,0-242.57,0c-1.82,0-3.64-.17-5.46-.25Z"/><path class="cls-1" d="M246.25,35.46c-.07,7.29-5.07,12-12.94,12.14a12.46,12.46,0,0,1-12.78-13A13.3,13.3,0,0,1,234,22C241.34,22.17,246.48,27.82,246.25,35.46Z"/><path class="cls-1" d="M17.18,32.4l7.43-15.7,7.53,15.7Z"/><path class="cls-1" d="M168.12,35.46A12.48,12.48,0,0,1,155,48.16c-7.07-.09-12.26-5.57-12.28-13A12.94,12.94,0,0,1,155.56,22C162.46,22.07,168.2,28.2,168.12,35.46Z"/><path class="cls-1" d="M155.38,87.74c1.44-4.39,4.11-7.24,8.79-7.78,4.49-.52,8.22.92,10.83,4.7a3.78,3.78,0,0,1,.78,2.71c-.15.51-1.6.88-2.48.89-5.49.07-11,0-16.46,0A5.39,5.39,0,0,1,155.38,87.74Z"/><path class="cls-1" d="M130.85,79.81a11.56,11.56,0,0,1,11.1,11.78c-.25,6.27-5.69,11.49-11.75,11.27a11.77,11.77,0,0,1-11.05-11.94A11.21,11.21,0,0,1,130.85,79.81Z"/><path class="cls-1" d="M62.21,102.89A11.48,11.48,0,0,1,50.88,91.37,11.21,11.21,0,0,1,62.16,79.88a11.5,11.5,0,0,1,0,23Z"/><path class="cls-1" d="M233.79,79.87a11.52,11.52,0,0,1-.1,23c-7.76-.09-11.26-6.6-11.35-11.58A11.43,11.43,0,0,1,233.79,79.87Z"/></g></g></svg>