<?xml version="1.0" encoding="utf-8"?>
<!-- Generator: Adobe Illustrator 21.1.0, SVG Export Plug-In . SVG Version: 6.00 Build 0)  -->
<svg version="1.1" id="Layer_1" xmlns="http://www.w3.org/2000/svg" xmlns:xlink="http://www.w3.org/1999/xlink" x="0px" y="0px"
	 viewBox="0 0 1043.8 514.9" style="enable-background:new 0 0 1043.8 514.9;" xml:space="preserve">
<style type="text/css">
	.st0{fill:#95989A;}
</style>
<title>Asset 3</title>
<g id="Layer_2">
	<g id="Layer_1-2">
		<path class="st0" d="M277.2,0c0.5,0.3,1,0.5,1.5,0.6c23.2,1.8,46,6.8,67.8,14.8c11.7,4.3,23.1,9.5,34,15.7
			c9.7,5.4,19.7,10.2,30.7,12.7c7.2,1.6,14.4,2.5,21.5-1.2c0.2,1.6-0.2,3.2-1.1,4.5c-2.7,5.2-7.6,8.9-13.4,10
			c-6,1.3-11.7,0.4-17.4-1.2c-9.3-2.7-18.3-6.8-26.5-12c-12-7.3-24.6-13.4-37.8-18.2c-14.5-5.4-29.5-9.5-44.7-12.2
			c-8.3-1.5-16.7-2.4-25.1-3.1c-10.8-0.9-21.5-0.7-32.3-0.4c-6.1,0.2-12.2,1.2-18.3,1.8c-10.1,1.1-20.1,3-29.9,5.7
			c-12.9,3.3-25.5,7.7-37.6,13.1c-14.9,6.6-29.2,14.6-42.6,24c-9.2,6.3-17.8,13.3-25.8,21C74.7,81,68.9,86.4,63.7,92.3
			c-6,6.9-11.5,14.2-17.2,21.4c-1.6,2.1-3.1,4.3-4.6,6.6c-0.5,0.7-0.8,1.6-0.8,2.5c2.8-3.8,5.5-7.6,8.4-11.3
			c4.4-5.5,8.9-11,13.7-16.2c5.1-5.5,10.4-10.9,16-15.9c6.4-5.7,13.1-11,19.9-16.2c11.5-8.5,23.7-15.8,36.6-21.9
			c13.9-6.6,28.4-11.9,43.3-15.7c10.5-2.7,21.1-4.8,31.9-6.1c13.4-1.7,27-2.1,40.6-1.4c24.2,1.3,48,6.2,70.7,14.6
			c17.6,6.5,34.4,15.1,49.9,25.6c6.1,4.3,12.7,7.6,19.8,9.9c8.1,2.6,14.6,3.1,23,1.3c0,0.3,0.2,0.7,0.1,0.9
			c-2.5,4.8-6.2,8.7-10.8,11.5c-6.2,3.7-12.7,3.8-19.4,1.9c-5.2-1.6-10.1-4.2-14.3-7.7c-11.1-8.5-23-16.1-35.4-22.5
			c-14.1-7.3-28.8-13.2-44.1-17.4c-9.3-2.6-18.9-4.6-28.5-6c-5.8-0.9-11.7-1.3-17.6-1.6c-6.9-0.4-13.9-0.7-20.8-0.5
			c-9.4,0.2-18.7,1.1-27.9,2.5c-9.2,1.4-18.4,3.3-27.4,5.8c-11.3,3.1-22.3,7.1-32.9,11.9c-12.7,5.7-24.8,12.5-36.2,20.5
			c-8.9,6-17.3,12.8-25.1,20.3c-5.4,5.3-10.8,10.5-15.9,16c-7.8,8.7-14.9,18-21.3,27.8c-0.3,0.5-0.5,1-0.7,1.6
			c0,0.1,0.1,0.2,0.3,0.4c2.6-3.6,5-7.2,7.7-10.6c4.5-5.6,9-11.2,13.8-16.4c4.3-4.7,8.9-9.1,13.5-13.5c10.3-9.7,21.6-18.2,33.8-25.4
			c15.5-9.5,32.1-17,49.5-22.4c10.8-3.3,21.9-5.8,33.1-7.5c7.5-1.2,15.1-1.8,22.8-2.1c3.2-0.1,6.5-0.5,9.7-0.5
			c10.5,0.2,21,1,31.4,2.4C289.9,44,325.5,59,355.6,82.2c3.6,2.8,7,5.7,10.6,8.4c3.7,2.8,7.9,4.9,12.4,5.9c5.1,1.1,10.1,1.3,15-0.7
			c0.6-0.3,1.3-0.4,2.3-0.8c-0.1,0.7-0.3,1.4-0.5,2.1c-2.6,4.9-5.8,9.2-10.5,12.2c-5.9,3.7-12.2,4.3-18.5,1.2
			c-3.3-1.6-6.5-3.6-9.2-6.1c-8.9-8.4-18.6-16.1-28.8-22.9c-5.5-3.6-11.2-7-17-10.2c-17.1-9.3-35.4-16.2-54.4-20.3
			c-8.7-2-17.5-3.3-26.4-3.9c-5.1-0.3-10.2-0.3-15.2-0.8c-6.1-0.6-12.3,0-18.3,0.3c-11.3,0.7-22.5,2.4-33.5,5
			c-17,3.9-33.5,10-49,18.1c-13.8,7.1-26.7,15.8-38.5,25.9c-5.8,5.1-11.6,10.3-17,15.8c-9.1,9.4-17.2,19.7-24.3,30.7
			c-0.4,0.6-0.6,1.2-0.7,1.9c33.9-47.9,79.4-77.8,137.5-87c44.6-7,87.1,0.3,126.9,21.8c30.5,16.2,56.2,40.2,74.4,69.6
			c-30.9-13-62-14.1-93.2-2.1c-21.3,8.2-39.8,22.5-53,41.1c-27.7,38.3-30.1,89.3-6.1,130c15.5,26.1,37.8,44.1,66.9,53.2
			s57.4,6.9,85.5-5.2c-26.5,45-87,93.4-166.9,94.1c-71.7,0.6-128.1-30-170.7-87.1c1.2,2.4,2.6,4.7,4.3,6.8
			c5.6,7.8,11.7,15.2,18.3,22.2c26.4,28.2,60.1,48.6,97.3,58.9c9.6,2.6,19.3,4.6,29.1,6c13,1.7,26.1,2.2,39.1,1.4
			c42.8-2.4,83.8-17.9,117.6-44.2c8.1-6,15.5-12.8,22.3-20.3c4-4.7,7.6-9.6,10.9-14.8c4-6.1,7-12.9,8.9-19.9c0.8-2.9,1.3-5.9,2-8.8
			c0.5-2,0.9-2.1,2.5-1.2c5.7,3.3,9.4,9.4,8.5,17.6c-1,10-5.8,18.5-11.4,26.5c-4.7,6.8-10.2,12.9-16.3,18.4c-10,9-20.8,17-32.2,24.1
			c-11.3,7-23.3,13-35.7,17.8c-11.5,4.6-23.4,8-35.5,10.4c-7.3,1.4-14.6,2.6-21.9,3.4c-9.6,1.1-19.2,1-28.8,0.9
			c-33.6-0.8-66.6-9.4-96.4-25c-13.2-7-25.7-15.3-37.2-24.8c-8.5-7-16.4-14.6-23.9-22.7c-6.1-6.6-11.8-13.7-16.9-21.1
			c-0.5-0.8-1.2-1.5-2-2c0.2,0.5,0.4,1,0.7,1.5c19,28.7,44.2,52.7,73.7,70.4c24.5,14.7,51.5,24.6,79.6,29.2c9.4,1.6,19,2.6,28.6,2.8
			c3.6,0.1,7.2,0.6,10.7,0.4c8.6-0.4,17.3-0.7,25.9-1.8c32.9-3.8,64.5-14.8,92.6-32.3c7.6-4.6,15-9.7,21.9-15.3
			c12-9.8,22.1-21.1,28.9-35.1c3.1-6,4.8-12.6,5-19.3c0.1-0.5,0.2-1.1,0.3-1.6c3.7,2.1,6.6,5.4,8.1,9.4c2,5.1,1.6,10.2,0.2,15.3
			c-2.2,7.8-6.5,14.5-11.5,20.9c-6.5,8.3-14.1,15.5-22.1,22.5c-9.4,8.1-19.9,14.3-30.8,20c-19.4,10.2-40.1,17.7-61.5,22.2
			c-6.4,1.4-13,2.2-19.5,3.1c-11.2,1.6-22.6,2.3-33.9,2c-10-0.3-20.1-1.1-30-2.5c-14.9-2.1-29.5-5.6-43.7-10.5
			c-24.3-8.4-47.2-20.6-67.6-36.3c-11.7-9.1-22.7-19.1-32.6-30.1c-6.7-7.3-12.9-15.2-18.5-23.4c-0.5-0.7-1.1-1.3-1.9-1.7
			c0.2,0.5,0.4,1,0.7,1.5c6,9.4,12.8,18.2,20.2,26.4c6.8,7.3,13.7,14.5,20.9,21.4c6.9,6.4,14.2,12.3,21.9,17.6
			c10.9,7.8,22.5,14.7,34.5,20.7c17.9,8.9,36.9,15.5,56.5,19.6c7.1,1.5,14.3,2.5,21.5,3.6c13.9,2.1,27.9,2.4,41.9,1.9
			c6.7-0.2,13.3-1.2,20-1.9c11.3-1.2,22.4-3.3,33.3-6.4c13-3.4,25.6-8,37.8-13.5c12.3-5.4,24-12,35.1-19.7
			c12.2-8.6,22.9-18.8,30.8-31.6c4.8-7.4,7.9-15.8,9.2-24.5c0.3-1.9,1-2.3,2.4-1.1c3.2,2.5,5.4,6.2,6,10.2
			c1.1,6.5-0.4,12.6-2.9,18.5c-3.7,8.4-8.9,16-15.3,22.6c-9.6,9.9-20.6,18.4-32.7,25c-16.7,9.3-34.4,16.7-52.7,22.1
			c-9.8,2.9-19.9,5.2-30,6.8c-7.8,1.3-15.5,2.1-23.4,2.8c-11.4,1-22.9,1.1-34.4,0.4c-37.8-2.2-74.6-12.8-107.8-30.9
			c-25.3-13.8-48-31.7-67.4-52.9c-12.7-13.9-23.9-29.3-33.2-45.7c-9.7-17-17.4-35-23.1-53.8c-3.1-9.9-5.4-20.1-7-30.3
			c-1.1-7.3-2-14.6-2.8-22c-1.5-13.2-1.1-26.6-0.4-39.9c0.8-12.9,2.7-25.7,5.7-38.3c3.2-14.2,7.5-28.1,13-41.6
			c7.5-18.1,17-35.3,28.4-51.2c6.9-9.7,14.5-18.9,22.7-27.6c16.3-17.3,34.9-32.2,55.3-44.4c15.9-9.6,32.8-17.3,50.3-23.2
			c12.5-4.2,25.3-7.4,38.3-9.5c7.2-1.1,14.4-2.1,21.7-2.7c0.5-0.1,1.1-0.3,1.6-0.6H277.2z M345.5,118
			c-46-46.4-124.8-69.1-199.4-41.2c-39.7,14.9-71.3,40.3-94.3,75.9c-24.5,38-34.2,79.7-29.8,124.6c7.2,73.2,58.8,142.4,139.2,165.2
			c73.6,20.9,146.3-6.1,185.6-47.4c-40.2,34.4-86.8,50.1-139.5,45.2c-53-4.9-96-29.1-128.6-71c-53.7-69.1-51.2-168.3,9-235
			c34.7-38.5,78.5-59.1,130.2-61C266,71.4,308.6,86.8,345.5,118z M351.8,386.9c-32.3,24.9-68.7,37.3-109.5,35.9
			s-76.5-16.1-106.4-43.8c-57.8-53.4-70.3-138.8-30.4-205.8c25.5-42.9,63.2-69.6,112.3-78.8S311.4,97,351.2,127
			c-61.2-56.3-166.4-62.9-236.7,5.8c-68.7,67-70.1,177-3.2,245.7c2.7,2.8,5.5,5.4,8.4,8C189.8,450,292.5,442.4,351.8,386.9
			L351.8,386.9z M356,379.9c-30,19.2-62.6,27.6-98.1,23.7s-65.9-18.8-90.5-44.6c-46.3-48.2-54.2-121.5-19.3-178.5
			c17.9-29.4,43.2-50.4,75.7-61.8c46.2-16.3,90.2-10.3,131.7,15.3C299.8,89.3,209,87.6,149.6,148.1c-58.9,59.7-59.8,155.3-2.1,216.1
			C207.1,426.9,299,426,356,379.9L356,379.9z M360.2,373.6c-27.7,12.7-56.4,16.1-86.2,9s-54.2-23-72.7-47.3
			c-32.5-42.4-35.3-100.6-6.9-145.9c17.5-28.2,42.4-47.1,74.5-56.2s62.9-5.8,92.8,8.3c-53.1-35-132.5-29.5-180.6,29.6
			c-45.2,55.9-39.5,137.2,13.1,186.3C244.5,404.9,316.3,403.1,360.2,373.6L360.2,373.6z"/>
		<path class="st0" d="M665.9,149.6c2.4,1.8,5,3.1,6.7,5.1c5.6,6.6,4,19.5-7.7,22.6c-3.6,0.8-7.3,1.3-11,1.4
			c-4.7,0.2-9.5,0.1-14.3,0c-1.2,0-2.3-0.1-3.4-0.4c-2.6-0.7-3.7-2-3.8-4.7c-0.1-3.1,0-6.3,0-9.4c0-10.7,0-21.3,0-32
			c0-0.9,0-1.9,0-2.8c0.1-3.2,1.2-4.7,4.4-5.3c1.6-0.3,3.2-0.4,4.8-0.3c6.1,0.2,12.3,0.2,18.4,0.6c4.5,0.3,8.6,2,11.2,6.1
			c3.8,6.1,3.2,14.5-4.3,18.5C666.4,149.3,666,149.5,665.9,149.6z M650.9,154.4L650.9,154.4c-2.4,0-4.8,0-7.3,0
			c-1.4,0-2.1,0.4-2.1,2c0.1,4.2,0,8.3,0,12.5c0,2,0.1,2.1,2.2,2.1c3.8,0,7.6,0.1,11.4,0c1.8,0,3.7-0.3,5.4-0.9
			c1.6-0.5,2.9-1.3,4-2.6c2.6-3.5,1.9-8.6-1.6-11.2c-0.8-0.6-1.8-1.1-2.8-1.3c-1.1-0.3-2.2-0.5-3.4-0.5
			C654.8,154.4,652.9,154.4,650.9,154.4L650.9,154.4z M649.4,147.4c1.8,0.1,3.7,0.1,5.5,0c1.7-0.1,3.4-0.6,5-1.2
			c2.8-1.3,4.3-4.8,3.8-8.2c-0.3-3-2.6-5.4-5.6-5.8c-5-1-10.1-0.4-15.2-0.5c-1.1,0-1.3,0.7-1.3,1.6c0,4.1,0,8.3,0,12.5
			c0,1.4,0.7,1.8,1.9,1.7C645.5,147.4,647.5,147.4,649.4,147.4L649.4,147.4z"/>
		<path class="st0" d="M585.3,137.6c0,11.4,0,22,0,32.7c0,1.5,0.1,3,0,4.5c-0.2,2.6-1.3,3.8-3.8,4c-2.9,0.2-4.1-0.6-4.8-3.3
			c-0.3-1.1-0.4-2.3-0.4-3.4c0-13.7,0-27.3,0-41c0-0.5,0-0.9,0-1.4c0.2-3.1,1.5-5.3,3.5-5.8c2.9-0.9,6,0.3,7.6,2.8
			c3.5,4.9,7,9.8,10.5,14.7c4.9,7,9.8,14,14.8,21c0.3,0.4,0.6,0.7,1,1v-3.7c0-9.6,0-19.2,0-28.8c0-0.8,0-1.6,0-2.4
			c0.2-3.6,2.1-5.2,5.7-4.6c1.4,0.1,2.6,1.2,2.8,2.7c0.1,0.9,0.1,1.8,0.1,2.8c0,14.5,0,29,0,43.4c0,0.5,0,0.9,0,1.4
			c0.2,1.9-0.9,3.7-2.7,4.5c-2.1,0.8-4.5,0.3-6.1-1.2c-0.8-0.9-1.5-1.8-2.1-2.8l-23-32.6C587.6,140.6,586.7,139.5,585.3,137.6z"/>
		<path class="st0" d="M754.5,156.8l12.8,15.2c0.2,0.3,0.5,0.5,0.7,0.8c2.1,2.8,1.7,4.3-1.6,5.6c-2.6,1-5.1,0.4-7.1-2.1
			c-2.3-2.7-4.6-5.5-6.8-8.3c-2.4-3-4.9-5.9-7.1-9c-1.5-2.1-3.6-1.8-5.6-1.6c-1,0.1-1.2,0.9-1.2,1.8c0,2.3,0,4.7,0,7
			c0,2.8,0.1,5.6,0,8.3s-1.3,4.1-3.9,4.3c-2.9,0.2-4.5-0.9-5.1-3.5c-0.1-0.8-0.2-1.6-0.1-2.4c0-13.9,0-27.8,0-41.7
			c0-0.7,0-1.4,0-2.1c0.4-3.3,1.8-5,5.1-5.1c8-0.2,16-0.8,23.8,1.2c5.4,1.3,9.6,4.3,11,9.9c1.7,6.5,1,12.6-4.3,17.5
			c-2.4,2.2-5.4,3.1-8.4,3.8C755.9,156.5,755.3,156.6,754.5,156.8z M738.4,141L738.4,141c0,2.4,0,4.9,0,7.3c0,1.1,0.3,1.8,1.5,1.8
			c3.7,0,7.4,0.2,11.1-0.1c2.9-0.2,5.8-0.9,7.7-3.4c2-2.6,2.5-6.1,1.3-9.2c-1.1-3.4-3.9-4.9-7.1-5.1c-4.3-0.3-8.5-0.1-12.8-0.2
			c-1.2,0-1.7,0.5-1.6,1.7C738.4,136.2,738.4,138.6,738.4,141z"/>
		<path class="st0" d="M802.4,156.8l12.1,14.5c0.7,0.8,1.3,1.6,1.9,2.4c1.2,1.8,1,2.7-0.8,3.9c-2.8,1.9-5.8,1.7-8.1-0.9
			c-2.6-2.8-4.9-5.8-7.3-8.8s-4.9-5.9-7.1-8.9c-1.6-2.1-3.6-1.7-5.7-1.5c-1.3,0.1-1.1,1.3-1.1,2.2c0,4.3,0,8.6,0,12.9
			c0,0.9,0,1.8-0.1,2.8c-0.1,1.8-1.5,3.3-3.3,3.5c-2.7,0.4-4.4-0.2-5.2-2.3c-0.4-1-0.6-2-0.6-3c0-14.6,0-29.2,0-43.8
			c0-3.7,1.7-5.7,5.5-5.8c5.9-0.1,11.8,0.2,17.7,0.4c3.4,0,6.7,0.7,9.7,2.3c4.8,2.6,7.5,6.4,7.6,11.9c0.2,2.2,0,4.4-0.3,6.6
			c-1.3,5.7-5.2,9.1-10.7,10.8C805.3,156.2,804,156.4,802.4,156.8z M786.3,140.9c0,2.3,0,4.6,0,6.9c0,2.1,0.1,2.2,2.1,2.2
			s3.9,0.1,5.9,0c2.5-0.1,5-0.3,7.5-0.7c2.3-0.3,4.4-1.8,5.5-3.8c3.3-6.2-0.2-12.9-7.1-13.4c-4-0.3-8.1-0.1-12.1-0.1
			c-1.4,0-1.8,0.7-1.8,1.9C786.3,136.3,786.3,138.6,786.3,140.9z"/>
		<path class="st0" d="M683.1,151.1c0-7.1,0-14.1,0-21.2c0-4.4,1.6-6.1,6.1-6.1c9.3-0.1,18.5,0,27.8,0c0.9,0,1.8,0.1,2.7,0.3
			c2.7,0.7,3.4,1.6,3.3,4.4c-0.1,2.5-1.1,3.6-3.6,3.7c-2.3,0.1-4.6,0-7,0c-5.9,0-11.8,0-17.7,0c-2.4,0-2.5,0.1-2.5,2.5
			c0,3.2,0,6.5,0,9.7c0,2,0.1,2.1,2.2,2.1c5.2,0,10.4,0,15.6,0c0.9,0,1.8,0,2.8,0c2.6,0.1,4.4,1.8,4.3,4s-1.7,3.7-4.1,3.8
			c-1.4,0.1-2.8,0-4.2,0c-4.9,0-9.7,0-14.6,0c-1.4,0-2.1,0.4-2.1,2c0.1,3.9,0.1,7.9,0,11.8c0,1.5,0.6,2,2,2c5.2-0.1,10.4,0,15.6,0
			c3.2,0,6.5,0,9.7,0c2.6,0,3.7,1,4,3.4c0.3,2.5-0.6,3.9-3.1,4.6c-1.1,0.3-2.3,0.4-3.4,0.4c-8.9,0-17.8,0-26.7,0
			c-0.7,0-1.4,0-2.1-0.1c-4-0.6-5.2-1.8-5.2-5.9C683.1,165.5,683.1,158.3,683.1,151.1z"/>
		<path class="st0" d="M515.5,363c0-6.7,0-13.4,0-20.1c0-0.9,0-1.9,0.1-2.8c0.1-2.2,1.8-3.9,4-4.1c0.8-0.1,1.6-0.1,2.4,0h27.8
			c0.7,0,1.4,0,2.1,0c3.9,0.4,4.7,4,3.1,6.7c-0.6,0.8-1.5,1.4-2.5,1.6c-1,0.2-2.1,0.2-3.1,0.1c-7.3,0-14.6,0-21.9,0
			c-2.8,0-2.8,0-2.8,2.9s0,5.8,0,8.7c0,2.7,0,2.7,2.6,2.8c5.3,0,10.7,0,16,0c0.9,0,1.9,0,2.8,0.1c1.9,0.1,3.4,1.7,3.6,3.6
			c0.1,2.2-1.6,4.1-3.7,4.2c-3.1,0.1-6.3,0.1-9.4,0.1c-3.4,0-6.7,0-10.1,0c-1.1,0-1.8,0.3-1.8,1.6c0,4.2,0,8.3,0,12.5
			c0,1.2,0.5,1.7,1.7,1.7c2.5,0,5.1,0,7.6,0c6,0,12,0,18.1,0c3.2,0,4.6,1.9,3.9,5c-0.2,1.7-1.7,2.9-3.4,2.9c-0.5,0-0.9,0-1.4,0
			c-10.1,0-20.2-0.1-30.2,0.1c-3.4,0.1-5.7-2.1-5.6-5.5C515.7,377.6,515.5,370.3,515.5,363z"/>
		<path class="st0" d="M515.3,275.2c-3.1,6.7-6.2,13.4-9.3,20.1c-1.2,2.6-2.5,5.2-3.7,7.9c-0.8,2-2.7,3.3-4.9,3.3
			c-2.3,0.1-4.3-1.3-5.1-3.4c-3-6.8-6.1-13.5-9.2-20.2l-4.1-9v4.4c0,12.2,0,24.3,0,36.5c0,0.9,0,1.9-0.1,2.8c-0.3,1.7-2,2.8-3.7,2.5
			c-1.3-0.3-2.3-1.3-2.5-2.6c0-0.7,0-1.4,0-2.1c0-14.7,0-29.4,0-44.1c0-0.2,0-0.5,0-0.7c0.1-3.2,1-4.7,3.4-5.3c3.1-0.8,5.6,0.2,7,3
			c3.3,7.1,6.6,14.3,9.8,21.5c1.5,3.3,2.9,6.5,4.5,10.1c0.5-0.7,0.9-1.4,1.3-2.2c2.8-6.1,5.5-12.2,8.2-18.4c1.7-3.7,3.3-7.4,5.1-11
			c1.4-2.8,2.9-3.5,5.9-3.1c2.7,0.3,4,1.8,4.1,4.6c0,0.5,0,0.9,0,1.4c0,14.7,0,29.4,0,44.1c0,0.7,0,1.4,0,2.1
			c-0.1,2-0.7,2.6-2.3,2.8c-2,0.2-3-0.2-3.5-2c-0.3-1.2-0.4-2.5-0.4-3.8c0-11.8,0-23.6,0-35.5v-3.4L515.3,275.2z"/>
		<path class="st0" d="M761.2,390.8c-1.7-0.3-3.7-0.6-4.6-2.7c-0.9-1.9-1.7-3.8-2.5-5.7c-0.8-2-1.6-4.1-2.4-6.2
			c-0.3-0.9-1.1-1.5-2.1-1.4c-6,0-12,0-18.1,0c-1.3,0-1.8,0.8-2.2,1.8c-1,2.6-2,5.2-3,7.8c-0.5,1.3-1.1,2.6-1.7,3.8
			c-1,2.1-3.3,3.1-5.5,2.5c-3.5-0.8-4.1-2-2.8-5.4c5.9-15.1,11.7-30.2,17.6-45.3c0.8-1.9,1.5-3.6,3.7-4.1c2.6-0.6,5.4-1,7.7,0.6
			c1.1,1,1.9,2.3,2.4,3.7c1.8,4.4,3.5,8.8,5.2,13.2l12.1,31c0.1,0.3,0.3,0.6,0.4,1C766.5,388.6,764.9,390.8,761.2,390.8z
			 M748.7,366.8l-8-21l-8,21H748.7z"/>
		<path class="st0" d="M566.7,178.8c-2.2,0.2-4.2-1.1-4.9-3.1c-1.2-3-2.4-6-3.6-9c-0.1-0.3-0.2-0.7-0.3-1c-1.2-2.9-1.2-2.9-4.2-2.9
			c-5.1,0-10.2,0.1-15.3,0c-1.9-0.1-3,0.4-3.6,2.3c-0.8,2.6-1.9,5.2-3,7.8c-0.4,1.1-0.9,2.1-1.4,3.2c-1,2.3-3.7,3.5-6.1,2.7
			c-2.8-0.7-3.6-2.1-2.5-4.9c4.9-12.7,9.9-25.4,14.8-38.2c1-2.5,1.9-5,2.8-7.4c1.5-3.9,2.5-4.6,6.7-4.6c0.6,0,1.2,0,1.7,0
			c2.5-0.1,4,1.2,4.9,3.5c2,5.2,4.1,10.3,6.1,15.5c4,10.1,7.9,20.2,11.8,30.4C572.1,176.7,570.7,178.8,566.7,178.8z M538.2,154.7
			c4.3,0.6,13.2,0.4,15.8-0.3l-7.8-20.6L538.2,154.7z"/>
		<path class="st0" d="M846.7,162.7c-3,0-6,0-9,0c-1.1-0.1-2.1,0.6-2.2,1.6c-1,2.9-2.2,5.8-3.3,8.7c-0.4,1.1-0.9,2.1-1.5,3.1
			c-1.3,2.5-4.4,3.4-6.9,2.1c-0.2-0.1-0.4-0.3-0.6-0.4c-1.7-1.1-1.9-1.5-1.2-3.4c1.4-3.8,2.9-7.6,4.3-11.3
			c4.4-11.5,8.9-23.1,13.3-34.6c1.6-4.1,2.5-4.8,6.9-4.8c4.9,0,5.5,0.5,7.3,5.2c5,12.9,10.1,25.8,15.1,38.8c0.8,2.1,1.7,4.3,2.5,6.5
			c0.8,2.3,0.3,3.5-2,4.4c-3.3,1.3-6.2-0.1-7.8-3.7c-1.3-3-2.4-6-3.5-9c-1.1-2.9-1.1-2.9-4.2-2.9
			C851.6,162.7,849.2,162.7,846.7,162.7z M838.6,154.7c4.2,0.6,13.1,0.5,15.5-0.2c-1-4.4-6.4-18.1-7.9-19.8L838.6,154.7z"/>
		<path class="st0" d="M581.3,335.1c5.5-0.2,10.6,0.9,15,4.3c1.2,1.1,2.2,2.3,3,3.7c1,1.6,0.5,3.1-0.5,4.5c-1.7,2.3-3.2,2.5-5.2,0.4
			c-5.2-5.2-11.4-6.4-18.2-4.3c-3.4,1.1-4.8,3.6-4.8,7.2c-0.2,2.4,1.3,4.6,3.6,5.3c2.1,0.7,4.2,1.3,6.3,1.8c4.4,1.1,8.8,2,12.8,4.3
			c2.6,1.4,4.7,3.5,6.1,6c2.6,4.9,2,14.5-4.1,18.9c-3.8,2.6-8.4,4.1-13,4.2c-4.6,0.3-9.3-0.4-13.6-2.1c-3.2-1.2-6.1-2.9-7.8-6
			c-0.5-0.9-0.8-2-0.8-3c0.1-2,1.3-3.8,3.1-4.6c1.7-0.6,2.1,1.1,3,1.9c5.7,5.6,12.4,7.4,20,5c3.8-1.2,5.3-3.6,5.3-7.5
			c0-2.2-1.3-4.1-3.2-5c-1.8-0.9-3.8-1.7-5.8-2.2c-3.3-1-6.7-1.7-10-2.8c-2.2-0.8-4.2-1.8-6.1-3.2c-7.2-5.2-6.7-17.8,1.1-23.1
			C571.5,336,576.4,334.7,581.3,335.1z"/>
		<path class="st0" d="M497.9,179.5c-15.1,0.1-25.5-9.4-27.5-23.1c-1.2-7.4,0.2-14.9,4.1-21.3c4.6-7.5,11.6-11,20.1-12
			c6.1-0.8,12.4,0.5,17.7,3.7c2.6,1.6,4.9,3.5,5.8,6.7c0.8,2.9-1.5,6.1-4.4,6.1c-0.6,0-1.3-0.8-1.8-1.3c-2.6-3.3-6.3-5.6-10.4-6.4
			c-9-1.8-16.9,2.4-20.2,10.7c-2.8,6.6-2.1,14.2,1.7,20.3c3.6,6,11.4,9.4,18.6,7.8c4.7-1,8.7-3,10.9-7.6c0.8-1.7,1.4-1.8,3.1-1.1
			c2.6,0.9,4,3.7,3.1,6.3c0,0.1-0.1,0.3-0.1,0.4c-0.9,2.4-2.6,4.4-4.8,5.8C509.2,177.9,503.6,179.7,497.9,179.5z"/>
		<path class="st0" d="M497.6,204.1v4.1c0,11.9,0,23.9,0,35.8c0,1,0,2.1-0.2,3.1c-0.4,1.6-2,2.7-3.7,2.3c-1.3-0.3-2.2-1.4-2.3-2.6
			c0-0.8,0-1.6,0-2.4c0-14.6,0-29.2,0-43.8c0-0.5,0-0.9,0-1.4c0-1.8,0.3-3.8,2.1-4.3c2.1-0.6,4.4-0.8,6.1,1.3
			c0.9,1.1,1.8,2.1,2.6,3.3c8.4,12.2,16.8,24.4,25.2,36.6c0.4,0.6,0.8,1.1,1.7,2.3V234c0-11.2,0-22.5,0-33.7c0-1,0-2.1,0.2-3.1
			c0.5-2.2,1.5-2.9,3.7-2.6c1.2,0,2.2,0.9,2.3,2.1c0,0,0,0,0,0c0.1,0.7,0,1.4,0,2.1c0,15.1,0,30.1,0,45.2c0,0.4,0,0.7,0,1
			c-0.1,2.6-0.8,3.6-2.7,4.3c-1.7,0.6-3.3,0-4.7-2s-2.6-3.8-4-5.7L499.1,206C498.8,205.5,498.4,205.1,497.6,204.1z"/>
		<path class="st0" d="M690.2,204.9v3.4c0,11.9,0,23.9,0,35.8c0,1,0,2.1-0.2,3.1c-0.3,1.4-1.6,2.4-3.1,2.3c-1.6,0-2.8-1.3-2.9-2.9
			c0-0.7,0-1.4,0-2.1c0-14.7,0-29.4,0-44.2c0-0.5,0-0.9,0-1.4c0-1.8,0.3-3.8,2.2-4.3s4.2-0.8,5.8,1.1c1.3,1.6,2.6,3.2,3.8,4.9
			c8.2,11.8,16.3,23.6,24.4,35.5c0.3,0.4,0.5,0.7,1.2,1.6c0.1-1.5,0.2-2.4,0.2-3.3c0-11.5,0-22.9,0-34.4c0-1,0-2.1,0.2-3.1
			c0.5-2,1.4-2.7,3.5-2.5c1.8,0.1,2.4,0.7,2.5,2.6c0.1,0.7,0,1.4,0,2.1c0,14.8,0,29.7,0,44.5c0,0.7,0,1.4,0,2.1c0,1.6-1,2.9-2.5,3.4
			c-1.3,0.6-2.8,0.3-3.9-0.7c-0.6-0.5-1.1-1.2-1.5-1.9c-8.4-12.2-16.9-24.3-25.3-36.5c-1.2-1.8-2.5-3.5-3.8-5.3L690.2,204.9z"/>
		<path class="st0" d="M911.4,203.7v4c0,12.2,0,24.3,0,36.5c0,0.9,0,1.9,0,2.8c-0.2,1.7-1.7,2.9-3.3,2.7c-1.3-0.1-2.4-1.1-2.7-2.3
			c-0.2-0.8-0.3-1.6-0.3-2.4c0-14.9,0-29.9,0-44.8c0-0.1,0-0.2,0-0.4c0.2-1.9,0-4.1,2.2-5c2.6-1,5.5,0,7,2.3
			c4.6,6.7,9.2,13.3,13.8,20l14.9,21.6c0.1-1.4,0.2-2.2,0.2-3c0-11.9,0-23.9,0-35.8c0-0.8,0-1.6,0-2.4c0.2-2.1,0.8-2.7,2.8-2.8
			c2.2-0.1,2.9,0.6,3,2.8c0,0.6,0,1.2,0,1.7c0,14.9,0,29.9,0,44.8c0,0.7,0,1.4,0,2.1c0,1.6-1,2.9-2.5,3.4c-1.5,0.5-3.1,0-4.1-1.2
			c-1-1.2-2-2.6-2.8-3.9l-26.8-38.8C912.5,205.1,912.1,204.6,911.4,203.7z"/>
		<path class="st0" d="M869.9,193.9c4.9-0.2,9.7,1,13.9,3.5c6.4,3.7,10.2,9.3,12,16.3c2.2,7.8,1.2,16.1-2.7,23.2
			c-4.3,7.7-11,11.8-19.8,12.9c-5,0.7-10.2,0-14.9-1.9c-8.3-3.4-13-9.9-15-18.3c-1.9-7.2-1-14.9,2.5-21.5
			c4.7-8.9,12.1-13.7,22.3-14.1C868.8,193.8,869.3,193.9,869.9,193.9z M890.3,222c-0.2-1.2-0.4-2.5-0.5-3.7
			c-0.4-4.8-2.4-9.2-5.7-12.7c-4.3-4.6-9.8-6.2-16-6c-7.1,0.3-12.3,3.7-15.8,9.7c-2.6,4.5-3.7,9.8-3,15c0.3,3.5,1.2,6.8,2.8,9.9
			c6.5,12,22.9,13.7,31.9,4.3C888.6,233.8,889.8,228.1,890.3,222z"/>
		<path class="st0" d="M695.5,379.3c1.7-4.6,3.1-8.5,4.5-12.4c3.3-9.1,6.5-18.3,9.8-27.4c1.3-3.6,4.8-4.8,8.2-3c1.8,1,2.2,1.9,1.4,4
			c-2.9,7.4-5.8,14.8-8.7,22.3c-2.8,7.2-5.7,14.4-8.5,21.6c-0.5,1.2-1,2.3-1.5,3.5c-1.1,2.5-3.1,3.1-5.6,3.1s-4.3-0.8-5.2-3.2
			l-5.7-14.5l-12.5-31.6c-0.2-0.4-0.4-0.8-0.5-1.3c-0.7-2.2-0.3-3.3,1.9-4.1c4.4-1.5,6.9-0.1,8.3,3.7c2,5.6,4,11.3,6.1,17
			c2.4,6.9,4.9,13.7,7.3,20.6C694.7,377.9,695,378.3,695.5,379.3z"/>
		<path class="st0" d="M658.9,226.8l14.6,17.4l0.2,0.3c0.8,1,1.9,1.8,0.8,3.3c-0.9,1.4-2.7,1.9-4.3,1.3c-0.9-0.4-1.8-1-2.5-1.8
			c-4.7-5.6-9.3-11.2-14-16.8c-0.6-0.6-1.1-1.2-1.6-1.9c-1.8-2.7-4.4-2-6.9-1.8c-0.3,0-0.8,0.8-0.9,1.2c-0.1,0.8-0.1,1.6-0.1,2.4
			c0,4.6,0,9.3,0,13.9c0,0.9,0,1.8-0.2,2.8c-0.3,1.5-1.8,2.6-3.3,2.4c-1.6-0.1-2.8-1.4-2.8-3c-0.1-0.8,0-1.6,0-2.4
			c0-14.5,0-28.9,0-43.4c0-0.9,0-1.8,0.1-2.8c0.3-1.8,1.3-3.2,3.2-3.1c7,0.1,14.1-0.8,21.1,0.5c10.7,1.9,14.5,8.1,13.3,18.6
			c-0.3,3.6-2.3,6.9-5.3,9c-2.4,1.8-5.3,2.9-8.3,3.3C661.2,226.2,660.3,226.5,658.9,226.8z M644.4,210.6c0,2.9,0,5.8,0,8.7
			c0,1.1,0.2,1.8,1.5,1.8c5.3-0.2,10.6,0.5,15.9-0.6c4.9-1,7.7-4.7,7.6-10.1c-0.1-5.1-3.1-8.5-8-9.3s-10.1-0.4-15.2-0.6
			c-1.4,0-1.8,0.6-1.8,1.9C644.4,205,644.4,207.8,644.4,210.6z"/>
		<path class="st0" d="M471.9,363.6c0-6.6,0-13.2,0-19.8c0-0.9,0-1.9,0.1-2.8c0.5-3.5,2.2-5.1,5.8-5.1c9.1,0,18.3,0,27.5,0
			c3.7,0,5.5,1.9,5,5c-0.1,1.7-1.4,3.1-3.1,3.3c-0.9,0.1-1.8,0.1-2.8,0.1c-7,0-13.9,0-20.9,0c-2.3,0-2.4,0.1-2.4,2.3
			c0,4,0,8.1,0,12.2c0,1.5,0.4,2.1,2,2c4.8-0.1,9.5,0,14.3,0c1,0,2.1,0,3.1,0.1c1.9-0.1,3.4,1.4,3.5,3.3c0,0.1,0,0.2,0,0.3
			c0.2,1.9-1.1,3.7-3,4.1c-0.9,0.1-1.8,0.2-2.8,0.1c-4.4,0-8.8,0-13.2,0c-3.6,0-3.3-0.1-3.3,3.5c0,4,0,8.1,0,12.2
			c0,1-0.1,2.1-0.3,3.1c-0.6,2.5-1.8,3.4-4.4,3.5c-2.8,0-4.1-0.9-4.7-3.6c-0.2-1-0.3-2.1-0.3-3.1
			C471.9,377.3,471.9,370.5,471.9,363.6z"/>
		<path class="st0" d="M592.2,221.8c0-7,0-13.9,0-20.9c0-0.9,0-1.9,0.1-2.8c0.2-2.1,2-3.6,4.1-3.4c10.4,0,20.9,0,31.3,0
			c2.1,0,3.1,1,3.3,2.8c0.1,1.4-0.8,2.6-2.7,3.1c-1,0.2-2.1,0.3-3.1,0.3c-7.5,0-15.1,0-22.6,0h-2.4c-1,0-1.6,0.4-1.6,1.4
			c0,4.9,0,9.7,0,14.6c0,1.4,0.9,1.4,1.9,1.4h17.7c1.4-0.1,2.8,0,4.2,0.1c2.2,0.3,3.2,2,2.4,4.1c-0.5,1.3-1.6,1.6-2.8,1.6h-10.8
			c-3.5,0-7,0-10.4,0c-2.1,0-2.2,0.1-2.2,2.1c0,4.9,0,9.7,0,14.6c0,2.4,0.2,2.5,2.6,2.5c7.9,0,15.8,0,23.6,0c0.9,0,1.8,0,2.8,0
			c2.9,0.1,3.7,0.7,3.6,3s-0.8,2.7-3.4,2.8c-1.8,0-3.7,0-5.6,0c-8.2,0-16.5,0-24.7,0c-4.1,0-5.3-1.2-5.4-5.4
			C592.2,236.4,592.2,229,592.2,221.8z"/>
		<path class="st0" d="M1003.2,247c0,1.5-2.2,2.8-3.8,2.5c-2-0.4-3.1-1.9-3.8-3.7c-1.4-3.8-2.9-7.6-4.3-11.4c-1-2.7-1-2.8-3.9-2.8
			c-5.7,0-11.3,0-17,0c-2.8,0-2.8,0-3.7,2.6c-1.4,3.7-2.8,7.4-4.2,11c-0.4,1-0.8,1.9-1.4,2.8c-0.9,1.3-2.5,1.8-4,1.3
			c-2.1-0.7-2.5-1.6-1.7-3.7c3.8-9.7,7.5-19.4,11.3-29.1c2.1-5.5,4.2-11,6.4-16.5c0.4-1,0.9-1.9,1.2-2.9c0.8-2.4,2.7-3.1,4.9-3
			c2-0.1,3.9,1.1,4.6,3c1.6,4,3.2,7.9,4.7,11.9c4.2,10.9,8.4,21.8,12.6,32.6C1002,243.5,1002.6,245.3,1003.2,247z M988.1,225.7
			l-9-23.6l-9.1,23.6H988.1z"/>
		<path class="st0" d="M758,194.1c2.4,0,3.8,0.9,4.7,3.3c3.2,8.2,6.4,16.4,9.6,24.6c3,7.8,6,15.5,9,23.3c0.4,1,1.3,2.1,0.1,3.2
			c-1.3,1.1-3.1,1.3-4.5,0.5c-1.3-0.8-2.2-2-2.7-3.5c-1.3-3.8-2.9-7.6-4.2-11.4c-0.4-1.6-1.9-2.7-3.6-2.5c-5.8,0.1-11.6,0-17.4,0.1
			c-2.7,0-2.7,0-3.7,2.7c-1.5,3.9-2.9,7.8-4.4,11.7c-0.6,1.6-1.3,2.9-3.2,3.3c-1.1,0.3-2.3-0.1-3.2-0.8c-1-0.8-0.7-1.9-0.3-2.9
			c1.8-4.6,3.5-9.3,5.3-13.9c4.4-11.3,8.8-22.7,13.2-34C753.9,195,755.2,194.1,758,194.1z M748.7,225.6c5.1,0.6,15.4,0.4,17.9-0.3
			l-8.9-23.3L748.7,225.6z"/>
		<path class="st0" d="M622.7,366.1c0-6.5,0-13,0-19.5c0-2.3-0.1-2.3-2.3-2.3c-4,0-8.1,0-12.2,0c-3-0.1-4.3-1.5-4.2-4.3
			c0-2,0.7-3.1,2.6-3.6c1.2-0.3,2.5-0.5,3.8-0.4c11.3,0,22.7,0,34,0c1,0,2.1,0,3.1,0.2c2,0.4,3.4,2.3,3.1,4.4
			c-0.1,2.1-1.7,3.7-3.8,3.8c-1,0.1-2.1,0-3.1,0c-3.4,0-6.7,0-10.1,0c-1.2,0-1.7,0.4-1.7,1.6c0,0.9,0,1.9,0,2.8
			c0,12.4,0,24.8,0,37.2c0,3.5-1.8,5.1-5.2,4.9c-2.6-0.1-3.8-1.3-4-3.8c-0.1-0.8,0-1.6,0-2.4C622.7,378.4,622.7,372.3,622.7,366.1z"
			/>
		<path class="st0" d="M602.6,320.7c-6.6,0-11.6-1.2-16-4.4c-1.7-1.2-3.1-2.8-4.2-4.5c-1.2-1.7-0.6-3.6,1-4.9c1.3-1,2-1,3.1,0.4
			c2.8,3.4,5.9,6.2,10.3,7.2c4,1,8.1,0.8,11.9-0.6c5.3-2.2,6.4-5.9,5.4-10.6c-0.4-1.6-1.4-2.9-2.8-3.8c-2.2-1.3-4.5-2.4-6.9-3.1
			c-3.8-1.3-7.8-2.2-11.6-3.4c-3.1-1-5.8-3-7.6-5.8c-3.1-5.1-2.7-11.5,1-16.2c4.9-5.8,11.4-7.3,18.5-6.5c3.9,0.4,7.8,1.3,11,3.9
			c1.4,1.2,2.6,2.6,3.5,4.1c0.9,1.7,0.2,3.8-1.6,4.7c-0.1,0.1-0.2,0.1-0.4,0.2c-0.9,0.4-1.9,0.1-2.4-0.8c-1.6-2.3-3.8-4.1-6.4-5.1
			c-4.1-1.8-8.7-2-12.8-0.5c-4,1.4-6.2,4.5-6.3,8.3c0,3.2,1.2,5.8,4.2,6.9s6.4,2,9.5,3.1c3.3,1,6.6,2.1,9.8,3.5
			c5.1,2.5,7.9,6.6,7.8,12.4c0.1,5.5-2.9,10.5-7.8,13C609.9,319.9,606.3,320.8,602.6,320.7z"/>
		<path class="st0" d="M532.9,285.5c0-5.2,0-10.4,0-15.6c0-0.8,0-1.6,0-2.4c0.2-1.8,1-2.5,2.7-2.4c1.9,0,3,0.8,3.2,2.5
			c0.1,0.9,0.1,1.9,0.1,2.8c0,7.9,0,15.8,0,23.6c0,3.1,0.2,6.2,0.6,9.3c0.8,5.1,3.5,10.3,11.2,11.5c5.3,0.9,10.4,0.2,14.4-4.1
			c1.6-1.8,2.8-4,3.2-6.5c0.5-2.4,0.8-4.8,0.8-7.2c0.1-8.8,0-17.6,0-26.4c0-0.9,0-1.9,0-2.8c0.1-1.8,0.8-2.5,2.5-2.8
			c1.8-0.3,3,0.3,3.5,2c0.3,0.9,0.4,1.8,0.3,2.7c0,9.1,0.2,18.3-0.1,27.4c0.1,4.2-0.7,8.3-2.1,12.2c-2,5.3-6.6,9.2-12.1,10.5
			c-4.9,1.3-10.2,1.3-15.1-0.1c-7.5-2.1-12.5-8.4-13-16.6C532.6,297.3,532.9,291.4,532.9,285.5L532.9,285.5z"/>
		<path class="st0" d="M645,292.8c-0.3-8.8,2.5-16.4,9.3-22.2c6.1-5.3,13.4-7,21.3-6.1c3.7,0.4,7.2,1.6,10.4,3.5
			c2.4,1.3,4.3,3.2,5.7,5.5c1,1.4,0.8,3.3-0.5,4.5c-1.3,1.3-2.6,1.3-3.7-0.2c-3.8-5.3-10.1-8.2-16.6-7.7c-8.6,0.2-16.1,6-18.3,14.4
			c-1.8,5.7-1.6,11.8,0.3,17.4c2.7,7.7,9.7,12.9,17.8,13.3c5.3,0.2,10.1-0.9,14.1-4.6c1.3-1.3,2.5-2.7,3.5-4.3
			c0.5-0.7,0.8-1.9,2-1.5s2.5,0.9,2.7,2.4c0.2,1.1,0,2.3-0.5,3.3c-1.1,1.8-2.4,3.4-3.9,4.7c-3.5,2.9-7.7,4.8-12.2,5.3
			c-6.7,0.8-13.2,0.2-19.1-3.5c-7.6-4.8-11.4-11.9-12.3-20.6C644.9,295.1,644.9,294,645,292.8z"/>
		<path class="st0" d="M770.9,362.5c0-7.2,0-14.4,0-21.5c-0.1-1.4,0.3-2.7,1-3.9c1.5-1.9,3.8-1.4,5.8-1.1c1.5,0.2,2.3,1.6,2.3,3.8
			c0.1,4.6,0,9.3,0,13.9c0,8.1,0,16.2,0,24.3c0,4.1-0.4,3.8,3.7,3.8c6,0,12,0,18.1,0c1,0,2.1,0.1,3.1,0.4c1.8,0.6,3,2.4,2.8,4.3
			c-0.1,2.1-1.8,3.7-3.8,3.8c-0.6,0-1.2,0-1.7,0c-8.3,0-16.7,0-25,0c-4.7,0-6.2-1.4-6.2-6.3C770.9,376.8,770.9,369.6,770.9,362.5z"
			/>
		<path class="st0" d="M801.6,224.7c0,7,0,13.9,0,20.9c0,1.6-0.1,3-1.9,3.7c-2.3,0.9-4.2-0.3-4.5-2.7c-0.1-0.8,0-1.6,0-2.4
			c0-13.2,0-26.4,0-39.6c0-3.8,0.2-3.6-3.6-3.6c-3.4,0-6.7,0-10.1,0c-1.3-0.1-2.5-0.2-3.8-0.5c-1.5-0.3-2-1.3-2-2.8
			c-0.1-1.3,0.8-2.5,2.2-2.8c0.8-0.1,1.6-0.2,2.4-0.1h36.2c0.7,0,1.4,0,2.1,0.1c1.4,0.2,2.5,1.5,2.4,2.9c0.2,1.3-0.6,2.5-1.9,2.7
			c0,0-0.1,0-0.1,0c-1.2,0.3-2.5,0.4-3.8,0.5c-3.6,0.1-7.2,0-10.8,0c-2.8,0-2.8,0-2.8,2.9C801.6,210.8,801.6,217.8,801.6,224.7z"/>
		<path class="st0" d="M560.8,224.4c0-6.9,0-13.9,0-20.8c0-2.6,0-2.6-2.7-2.7c-3.6,0-7.2,0-10.8,0c-1.2,0-2.3-0.1-3.4-0.4
			c-2.2-0.5-2.7-1.4-2.5-3.4c0.2-1.5,0.9-2.2,2.9-2.4c0.7,0,1.4,0,2.1,0h35.4c0.7,0,1.4,0,2.1,0c1.4,0.1,2.6,1.3,2.7,2.7
			c0.2,1.3-0.7,2.6-2,2.9c-1.3,0.4-2.7,0.6-4.1,0.6c-3.6,0.1-7.2,0-10.8,0c-2.5,0-2.5,0.1-2.5,2.6c0,8,0,16,0,24c0,5.7,0,11.3,0,17
			c0,1-0.1,2.1-0.3,3.1c-0.5,1.4-1.8,2.2-3.2,2.1c-1.4,0-2.6-1.2-2.8-2.6c-0.1-0.8-0.1-1.6-0.1-2.4
			C560.8,237.8,560.8,231.1,560.8,224.4z"/>
		<path class="st0" d="M665.2,363.5c0,6.9,0,13.9,0,20.8c0,0.8,0,1.6,0,2.4c-0.2,1.7-0.9,3.1-2.6,3.7c-1.9,0.8-4,0.5-5.6-0.8
			c-0.5-0.5-0.8-1.1-0.9-1.8c-0.3-1.5-0.5-3-0.5-4.5c0-13.6,0-27.3,0-40.9c0-0.8,0-1.6,0.1-2.4c0.5-3.5,1.8-4.5,5.4-4.3
			c2.3,0.1,3.4,1,3.9,3.1c0.2,1,0.3,2.1,0.2,3.1C665.2,349.2,665.2,356.3,665.2,363.5z"/>
		<path class="st0" d="M1009.3,221.4c0-7.3,0-14.6,0-21.9c0-0.7,0-1.4,0-2.1c0.1-2.1,0.7-2.7,2.7-2.9c2.4-0.2,3.4,0.5,3.7,2.7
			c0.1,0.9,0.1,1.9,0,2.8c0,13,0,25.9,0,38.9c0,0.7,0,1.4,0,2.1c0.1,2.1,0.1,2.2,2.1,2.2c1.4,0,2.8,0,4.2,0c6.1,0,12.3,0,18.4,0
			c2.8,0,3.8,1.3,3.2,3.9c-0.1,1-0.9,1.7-1.8,1.8c-0.8,0.1-1.6,0.1-2.4,0.1h-25c-0.5,0-0.9,0-1.4,0c-2.5-0.2-3.5-1.1-3.6-3.7
			c-0.1-4.2,0-8.3,0-12.5C1009.3,229,1009.3,225.2,1009.3,221.4z"/>
		<path class="st0" d="M629.6,292.4c0-8,0-16,0-24c0-2.6,0.9-3.5,3.2-3.5c1.3-0.2,2.6,0.7,2.8,2c0.3,1,0.4,2.1,0.4,3.1
			c0,15.2,0,30.3,0,45.5c0,0.6,0,1.2,0,1.7c-0.3,2-1.5,2.8-3.7,2.7c-1.9-0.1-2.6-0.7-2.6-2.9c-0.1-7.1,0-14.1,0-21.2
			C629.7,294.7,629.7,293.5,629.6,292.4L629.6,292.4z"/>
		<path class="st0" d="M833.6,222c0,7.4,0,14.8,0,22.2c0,0.9,0,1.8-0.1,2.8c-0.2,1.4-1.4,2.5-2.8,2.6c-1.4,0.2-2.8-0.7-3.2-2.1
			c-0.2-0.8-0.3-1.6-0.3-2.4c0-15.5,0-31,0-46.5c0-0.7,0-1.4,0.2-2.1c0.4-1.6,1.3-2.1,3.5-2c1.9,0.1,2.5,0.7,2.7,2.5
			c0,0.9,0,1.8,0,2.8C833.6,207.2,833.6,214.6,833.6,222z"/>
		<path class="st0" d="M479.7,222c0,7.4,0,14.8,0,22.2c0,0.8,0,1.6,0,2.4c0.1,1.6-1.2,2.9-2.7,3c0,0,0,0,0,0c-1.6,0.1-3-0.9-3.4-2.4
			c-0.2-0.9-0.2-1.8-0.2-2.8c0-14.8,0-29.7,0-44.5c0-0.8,0-1.6,0.1-2.4c0.4-2.4,1.5-3.2,3.9-3c1.6,0.2,2.2,0.7,2.4,2.4
			c0,0.8,0,1.6,0,2.4C479.7,206.9,479.7,214.4,479.7,222z"/>
	</g>
</g>
</svg>
