<?xml version="1.0" encoding="utf-8"?>
<!-- Generator: Adobe Illustrator 21.1.0, SVG Export Plug-In . SVG Version: 6.00 Build 0)  -->
<svg version="1.1" id="Layer_1" xmlns="http://www.w3.org/2000/svg" xmlns:xlink="http://www.w3.org/1999/xlink" x="0px" y="0px"
	 viewBox="0 0 1174.2 561.6" style="enable-background:new 0 0 1174.2 561.6;" xml:space="preserve">
<style type="text/css">
	.st0{fill:#95989A;}
</style>
<title>Asset 5</title>
<g id="Layer_2">
	<g id="Layer_1-2">
		<path class="st0" d="M335.5,280.8c0-28,0-56,0-84c0-5.6,0-5.6,5.4-5.6c11.7,0,23.3,0,35,0c4.9,0,5,0.1,5,5.1c0,18.7,0,37.3,0,56
			c0,5.8,0,5.9,5.8,5.9c15.5,0,31,0,46.5,0c5.7,0,5.8-0.1,5.8-5.9c0-18.5,0-37,0-55.5c0-5.5,0.1-5.5,5.6-5.5c11.7,0,23.3,0,35,0
			c4.9,0,5,0.1,5,5.1c0,56.2,0,112.3,0,168.5c0,5.4-0.3,5.7-5.7,5.7c-11.3,0-22.7,0-34,0c-5.7,0-6-0.3-6-5.9c0-19.8,0-39.7,0-59.5
			c0-6.5-0.1-6.7-6.8-6.7c-15,0-30,0-45,0c-6.1,0-6.2,0.2-6.3,6.1c0,19.8,0,39.7,0,59.5c0,6.3-0.1,6.4-6.4,6.4
			c-11.2,0-22.3,0-33.5,0c-5.4,0-5.6-0.2-5.6-5.7C335.5,336.8,335.5,308.8,335.5,280.8z"/>
		<path class="st0" d="M893.5,280.4c0-27.8,0-55.6,0-83.5c0-5.7,0-5.8,5.8-5.7c24.2,0.1,48.3,0.1,72.5,0.6
			c10.5,0.1,20.9,2.5,30.4,6.9c11,5.2,18.4,14.1,23.7,24.7c8.2,16.6,9.1,34,3.7,51.5c-3.7,12-10.8,21.7-22.8,26.9
			c-6,2.5-12.1,4.6-18.2,6.8c-3.4,1.2-3.8,2-1.6,4.8c4.9,6.3,9.9,12.5,14.9,18.7c9.1,11.4,18.2,22.9,27.3,34.3c0.5,0.9,1,1.9,1.2,3
			c-1,0.5-2,0.8-3.1,1c-14.5,0.1-29,0.1-43.5-0.1c-2.3-0.1-4.4-1.2-5.9-2.9c-12.2-16.5-24.2-33.2-36.3-49.9
			c-0.8-0.9-1.8-1.7-2.8-2.4c-0.5,1.1-0.8,2.3-0.9,3.6c-0.1,14.8,0,29.6,0,44.5c0,1,0,2,0,3c-0.2,3.5-0.8,4.1-4.7,4.2
			c-9.8,0.1-19.7,0-29.5,0c-2.2,0-4.3,0-6.5,0c-2.5,0-3.8-1-3.6-3.6c0-1.2,0-2.3,0-3.5C893.5,335.7,893.5,308.1,893.5,280.4z
			 M937.8,256c0,7,0,14,0,20.9c0,2,0.2,3.9,2.8,3.8c10.8,0,21.7,1,32.2-2c11-3.1,16.1-13.4,16.4-23.2c0.3-8.5-7-17.1-15.1-20.4
			c-10.7-4.4-21.8-3.4-33-3.5c-3.2,0-3.3,2.1-3.3,4.4C937.8,242.7,937.8,249.3,937.8,256z"/>
		<path class="st0" d="M754.5,370.5c-6.7,0-13.3-0.1-20,0c-3.6,0.1-5.6-1.5-6.6-4.8c-1.8-5.7-3.9-11.3-5.5-17.1
			c-0.9-3.1-2.6-4.4-5.7-4.3c-18.2,0-36.3,0-54.5,0c-2.9,0-4.5,1.1-5.4,4.1c-1.8,5.7-4,11.3-5.9,16.9c-1.5,4.3-2.4,5.1-6.8,5.1
			c-13.2,0.1-26.3,0.1-39.5,0c-4.4,0-4.6-0.5-2.9-4.5c10.4-25.4,20.7-50.8,31.1-76.2c5-12.2,9.8-24.4,14.7-36.6
			c5.1-12.6,10.4-25.1,15.6-37.7c2.8-6.9,5.8-13.8,8.4-20.8c1-2.6,2.5-3.6,5.2-3.5c9.5,0.1,19,0.1,28.5,0c2.7,0,4.1,0.8,5.1,3.5
			c5.5,14.2,11.2,28.4,16.9,42.6c5.2,13,10.5,25.9,15.6,38.8c5,12.7,9.9,25.4,15,38c6.7,16.8,13.4,33.7,20.1,50.5
			c0.3,0.6,0.4,1.3,0.6,1.9c1.1,3.2,0.8,3.9-2.6,4c-7.2,0.1-14.3,0-21.5,0L754.5,370.5z M691.4,248.8c-1.1,2-2.1,4-3,6.1
			c-1.2,3.5-2,7-3.1,10.5c-4.2,12.8-8.5,25.5-12.8,38.3c-1.1,3.4-0.7,4.2,2.9,4.3c9.7,0.1,19.3,0.1,29,0c3.9,0,4.2-0.9,3.2-4.6
			c-4.3-14.7-8.5-29.4-12.7-44C693.9,256.3,692.8,253.2,691.4,248.8z"/>
		<path class="st0" d="M499.1,280.7c0-27.2,0-54.3,0-81.5c0-1,0-2,0-3c0.1-4.7,0.3-4.9,5.3-5c1.8,0,3.7,0,5.5,0h82.5
			c6.1,0,6.1,0,6.1,6.1c0,9.8,0,19.7,0,29.5c0,4.7-0.2,4.8-4.8,4.8c-14.8,0-29.7,0-44.5,0c-5.9,0-6.2,0.3-6.2,6.2
			c0,5.3-0.1,10.7,0,16c0.1,4.4,0.5,4.9,4.9,4.9c14.2,0.1,28.3,0,42.5,0c6,0,6.1,0,6.1,6.2c0,9.3,0,18.7,0,28c0,6.8,0,6.8-6.6,6.8
			c-13.7,0-27.3,0-41,0c-5.8,0-5.9,0.1-6,5.8c0,6.3,0,12.7,0,19c0,4.7,0.3,5,5.2,5c14.7,0,29.3,0,44,0c6.3,0,6.3,0,6.3,6.5
			c0,9.5,0,19,0,28.5c0,5.4-0.4,5.9-5.6,5.9c-29.3,0-58.7,0-88,0c-5.3,0-5.8-0.6-5.8-6.3C499.1,336.3,499.1,308.5,499.1,280.7z"/>
		<path class="st0" d="M1047.2,280.9c0-27.3,0-54.7,0-82c0-1.3,0.1-2.7,0-4c-0.1-2.4,0.8-3.8,3.5-3.7c1,0.1,2,0,3,0h87.5
			c5,0.1,5.1,0.2,5.2,5s0,9.7,0,14.5c0,5.2,0,10.3,0,15.5c0,5.4-0.1,5.4-5.7,5.5c-14.2,0-28.3,0-42.5,0c-1,0-2,0.1-3,0
			c-3-0.3-4.2,1.1-4.2,4.1c0.1,6.2,0,12.3,0,18.5c0,4.2,0.4,4.5,4.6,4.6c13.8,0.1,27.7,0,41.5,0c1.7,0,3.3,0.1,5,0
			c2.9-0.1,4.3,1.1,4.3,4.1c-0.1,10.8,0,21.7-0.1,32.5c0,3.9-0.7,4.3-5,4.3c-14.3,0-28.7,0-43,0c-1.3,0-2.7,0-4,0
			c-2.2,0-3.4,0.9-3.4,3.3c0,7.7,0.1,15.3,0,23c0,3.4,2.1,3.6,4.6,3.6c14.2,0,28.3,0,42.5,0c8.3,0,8.3-1.1,8.3,8.5
			c-0.1,8.8,0,17.7,0,26.5c0,5.5-0.4,5.9-6.1,5.9c-29.2,0-58.3,0-87.5,0c-5.4,0-5.6-0.2-5.6-5.6
			C1047.2,336.8,1047.2,308.8,1047.2,280.9z"/>
		<path class="st0" d="M458.1,132.2c0.1-1.7,0.3-3.5,0.3-5.2c0-39.8,0-79.7,0-119.5c0-1.5,0.1-3,0-4.5c-0.1-2.2,1-2.9,3.1-2.9
			c6.8,0.1,13.7,0.1,20.5,0.1c1.8,0,2.8,0.8,2.8,2.7c0,1.3,0,2.7,0,4c0,54.3,0,108.7,0,163c0,0.2,0,0.3,0,0.5c0,6.4,0,6.4-6.3,6.4
			c-5.7,0-11.3-0.1-17,0.1c-2.7,0.3-5.3-1-6.7-3.4c-5.8-8.5-11.7-17-17.6-25.4c-8.7-12.5-17.5-25-26.2-37.5
			c-7.7-11.2-15.3-22.5-23-33.7c-7.4-10.7-14.8-21.3-22.2-31.8c-0.3-0.6-0.8-1.1-1.2-1.5c-1.1-1-2.2-1.1-2.4,0.7
			c-0.1,1.3-0.1,2.7-0.1,4c0,40.5,0,81,0,121.5c0,1.2-0.1,2.3,0,3.5c0.1,2.5-0.9,3.6-3.5,3.6c-6.5-0.1-13-0.1-19.5,0
			c-2.6,0-3.7-1.1-3.5-3.6c0.1-0.8,0-1.7,0-2.5c0-54.8,0-109.6,0-164.5c0-0.8,0.1-1.7,0-2.5c-0.2-2.5,0.8-3.6,3.4-3.6
			c7.7,0.1,15.3,0.1,23,0c2.3,0,3.6,1,4.8,2.8c11.6,16.8,23.2,33.6,34.8,50.4c11.4,16.3,22.8,32.6,34.1,48.9c6.3,9,12.4,18,18.6,27
			c0.8,1.1,1.8,2.2,2.6,3.3L458.1,132.2z"/>
		<path class="st0" d="M753.9,516.2c0-1.8,0-3.6,0-5.4c0-40,0-80,0-120c0-6,0-6,6.1-6.1c5.3,0,10.7,0.1,16,0c2.7,0,4.1,0.9,3.8,3.8
			c0,0.8,0,1.7,0,2.5c0,54.7,0,109.3,0,164c0,1-0.1,2,0,3c0.2,2.5-0.8,3.6-3.5,3.5c-6.7-0.1-13.3-0.1-20,0c-1.8,0.2-3.6-0.8-4.5-2.4
			c-5.4-8.6-11-17-16.5-25.6c-8.1-12.6-16.2-25.2-24.2-37.8c-6.7-10.5-13.3-21-20-31.5c-7.4-11.6-14.8-23.2-22.2-34.8
			c-0.6-0.7-1.4-1.3-2.2-1.7c-0.4,0.8-0.8,1.7-1,2.6c-0.1,1.3-0.1,2.7,0,4c0,40.2,0,80.3,0,120.5c0,0.8,0,1.7,0,2.5
			c-0.1,4.1-0.1,4.2-4.3,4.2c-5.7,0.1-11.3,0.1-17,0c-4.6,0-4.6-0.1-4.6-4.9c0-0.8,0-1.7,0-2.5c0-54.3,0-108.7,0-163c0-1,0.1-2,0-3
			c-0.2-2.4,1.1-3.3,3.3-3.3c7.7,0,15.3-0.1,23,0.1c1.4,0.2,2.7,1,3.5,2.2c6,9.2,11.8,18.5,17.7,27.7c4.8,7.6,9.7,15.1,14.5,22.6
			c7,10.9,14,21.8,20.9,32.7c8.2,12.9,16.4,25.8,24.6,38.6c1.7,2.6,3.4,5.2,5.1,7.8L753.9,516.2z"/>
		<path class="st0" d="M907.7,472.9c0-27.3,0-54.7,0-82c0-6.1,0-6.2,6-6.2c22.2,0.1,44.3,0.3,66.5,0.5c9.2,0.2,18.2,2.6,26.2,7.2
			c13.1,7.3,20.8,18.7,24.5,33.1c3.1,11.9,2.7,24.4-1.1,36c-3.4,10.9-10.8,20.1-20.7,25.8c-7.4,4.4-15.5,6.6-23.9,8.1
			c-0.9,0.2-2.5,0.5-2.5,0.9c-0.1,1.1,0.2,2.2,0.9,3.1c4.3,5.5,8.7,10.8,13.1,16.3c8.4,10.5,16.7,21,25.1,31.6c3,3.8,6,7.5,9.1,11.3
			c1.6,2,1,3-1.4,3c-9.2,0-18.3,0-27.5,0c-3.3,0-4.5-2.8-6-4.7c-15.5-19.7-30.8-39.5-46.2-59.2c-2.7-3.5-5.5-7-8.4-10.4
			c-0.5-0.6-1.6-0.8-2.5-1.2c-0.3,0.7-0.6,1.4-0.8,2.2c-0.1,1.2-0.1,2.3,0,3.5c0,21.5,0,43,0,64.5c0,5.3,0,5.3-5.3,5.3
			c-6.7,0-13.3,0-20,0c-4.8,0-4.9-0.1-4.9-5.1C907.7,528.5,907.7,500.7,907.7,472.9z M957.9,408.2c-6,0-10.7-0.1-15.3,0
			c-4.2,0.1-4.7,0.5-4.7,4.5c-0.1,19.5-0.1,39,0,58.5c0,3.9,0.6,4.4,4.3,4.5c6.7,0.1,13.4,0.4,20-0.1c9.1-0.7,18.2-1.8,26.6-6.2
			c7.7-4.1,13.5-9.7,15.8-18.3c4.5-17.6-3.3-34.4-21.7-40.1C974.1,408.3,965.4,408.3,957.9,408.2L957.9,408.2z"/>
		<path class="st0" d="M499.1,87.9c0-27.3,0-54.7,0-82c0-5.7,0-5.8,5.8-5.8c16.8,0,33.7,0,50.5,0c9.1,0,17.9,1.4,26.2,5.3
			c10.9,5,19.2,14.2,23,25.6c3.1,9,4.3,18.1,2.3,27.5c-1.6,7.3-4.6,13.8-10,19.1c-0.5,0.5-0.9,1-1.3,1.5c-2.6,3.1-2.6,3.6,0.7,5.7
			c8,5.2,14.2,11.8,18.1,20.7c2.6,5.8,3.9,12.1,3.8,18.5c0,17-5.6,31.7-19.9,42.1c-3.5,2.6-7.3,4.6-11.3,6.1
			c-7.6,2.9-15.7,4.5-23.9,4.5c-19.5-0.1-39,0-58.5,0c-5.3,0-5.5-0.2-5.5-5.8C499.1,143.2,499.1,115.6,499.1,87.9z M524.9,124.6
			c0,7.7,0,15.3,0,23c0,5,0.5,5.5,5.4,5.6c7,0.1,14,0.2,21,0c6.5-0.1,12.9-0.6,19.4-1.5c14.4-2.5,24-17.1,20.9-31.2
			c-3-13.7-12.8-22.2-27.1-22.7c-11.6-0.4-23.3-0.2-35-0.1c-4.3,0-4.5,0.3-4.6,4.6C524.8,109.6,524.9,117.1,524.9,124.6z
			 M543.6,23.8L543.6,23.8c-4.7,0-9.3-0.1-14,0c-4.3,0.1-4.7,0.4-4.7,4.5c0,13.5,0,27,0,40.5c0,4.1,0.4,4.5,4.7,4.6
			c8.7,0.1,17.3,0.2,26-0.1c4.3-0.1,8.6-0.9,12.7-2.4c7.3-3.1,12-8.6,13.1-16.9c1.3-9.5,0-18-8-24.3c-4.9-3.8-11-5.8-17.2-5.8
			C551.9,23.7,547.8,23.8,543.6,23.8z"/>
		<path class="st0" d="M829.2,112c2.9,3.8,5.6,7.5,8.5,11.1c8.8,11.2,17.6,22.4,26.5,33.6c4.2,5.3,8.5,10.7,12.6,16.1
			c0.6,0.9,1.1,1.9,1.5,2.9c-1,0.5-2,0.8-3.1,1c-8.2,0.1-16.3,0-24.5,0.1c-2,0.1-3.9-0.8-5.1-2.4c-12.1-14.5-24.3-29-36.6-43.4
			c-9.1-10.8-18.3-21.5-27.5-32.2c-0.9-0.9-1.9-1.8-3-2.6c-0.2,2.6-0.5,4.5-0.5,6.3c0,22.3,0,44.7,0,67c0,1.3,0,2.7,0,4
			c0,2.3-1.2,3.3-3.4,3.3h-19.5c-2.1,0-3-1.1-3.1-3.1c0-1.3,0-2.7,0-4c0-54.3,0-108.6,0-162.9c0-0.8,0-1.7,0-2.5
			c-0.3-3,0.9-4.1,4-4.1c9.3,0.1,18.7,0,28,0c13.7,0,27.3,0,41,0.2c8.2,0.1,16.2,1.3,23.8,4.6c9.8,4.2,18,11.6,23,21.1
			c9.2,17,10.4,35,3.8,53.1c-4.8,13.1-14.3,22.3-27.4,27.3C842.2,108.7,835.9,110.1,829.2,112z M778,57.3c0,9.3,0,18.6,0,28
			c0,5.6,0.1,5.7,5.5,5.7c7.7,0,15.3,0.3,23-0.1c6.6-0.2,13.2-0.9,19.8-2c7.6-1.2,14.6-5,19.8-10.7c7-7.9,9-17.4,7.3-27.5
			C852,43,848.6,36,841.8,31.1c-6.5-4.7-14.3-7.3-22.4-7.3c-12.3-0.2-24.6-0.1-36.9,0c-4.3,0-4.4,0.2-4.4,4.6
			C778,38,778,47.7,778,57.3z"/>
		<path class="st0" d="M919.4,97.4c0,1.8,0,3.6,0,5.4c0,22.7,0,45.3,0,68c0,5.9,0,5.9-5.7,5.9c-4.8,0-9.7,0-14.5,0
			c-5.7,0-5.7,0-5.7-5.9c0-0.3,0-0.7,0-1c0-54.3,0-108.7,0-163c0-0.8,0-1.7,0-2.5c0.1-4.1,0.1-4.2,4.2-4.2c21,0,42,0,63,0
			c9.5-0.1,19,1.9,27.7,5.8c8.3,3.7,15.2,9.9,19.8,17.7c8.9,15,11.3,31.2,7.3,48.1c-4.1,17.6-15,29.4-32,35.4
			c-4.6,1.5-9.3,2.7-14,3.6c-2.6,0.6-3.2,1.5-1.5,3.6c3.7,4.7,7.3,9.5,11,14.2c8.3,10.5,16.7,21,25.1,31.6c3.4,4.3,6.8,8.6,10.1,13
			c0.5,0.8,0.9,1.6,1.2,2.5c-0.8,0.4-1.7,1.1-2.5,1.1c-8.7,0.1-17.3,0.2-26-0.1c-1.5,0-3.3-1.4-4.4-2.7
			c-7.7-9.4-15.2-18.9-22.7-28.3c-11.4-14.3-22.8-28.5-34.2-42.8c-1.6-2-3.3-3.9-5-5.9L919.4,97.4z M919.4,57.4c0,9.5,0,19,0,28.4
			c0,5.1,0.1,5.1,4.9,5.2c6.7,0.1,13.3,0.2,20,0c10-0.3,19.9-0.7,29.2-5.4c9.8-4.9,15.9-12.3,17.4-23.2c1.4-10.2-0.6-19.4-7.9-27.2
			c-7.5-8.1-17.1-11.1-27.7-11.4c-10.3-0.3-20.6-0.1-30.9-0.1c-4.8,0-4.8,0.1-4.9,5.2C919.4,38.4,919.4,47.9,919.4,57.4z"/>
		<path class="st0" d="M232.7,300.9c0-21.2,0-42.3,0-63.5c0-5.7-0.1-5.8-6-5.8c-10.3,0-20.7,0-31,0c-4.7,0-4.8-0.1-4.8-4.8
			c0-10.2,0-20.3,0-30.5c0-5.1,0-5.2,5.4-5.2c31.8,0,63.6,0,95.5,0c8.3,0,16.7,0,25,0c4.3,0,4.6,0.4,4.6,4.6c0.1,10.3,0.1,20.7,0,31
			c0,4.7-0.2,4.8-4.8,4.9c-10.8,0.1-21.6,0-32.5,0c-6,0-6.1,0-6.1,6.1c0,41.6,0,83.3,0,124.9c0,1.2-0.1,2.3,0,3.5
			c0.2,2.9-1.1,4.3-4.1,4.3c-12.3,0-24.6,0-37-0.1c-3.9,0-4.3-0.7-4.3-5.5C232.6,343.6,232.6,322.3,232.7,300.9z"/>
		<path class="st0" d="M840,301c0,21.2,0,42.3,0,63.5c0,5.6-0.4,5.9-6,6c-11.2,0-22.3,0-33.5,0c-5.7,0-6.2-0.5-6.2-6.4
			c0-41.3,0-82.7,0-124c0-8.5,0-8.5-8.4-8.5c-9.8,0-19.7,0-29.5,0c-4.3,0-4.5-0.2-4.5-4.5c0-10.3,0-20.7,0-31c0-4.8,0.1-4.9,5.2-4.9
			c21.7,0,43.3,0,65,0c17.2,0,34.3,0,51.5,0c6,0,6,0,6,6.2c0,9.8,0,19.7,0,29.5c0,4.7-0.1,4.8-4.8,4.8c-9.8,0-19.7,0-29.5,0
			c-5.1,0-5.3,0.3-5.3,5.4C840,258.3,840,279.7,840,301z"/>
		<path class="st0" d="M1096.3,124.8c-8.5,0-17,0.1-25.5-0.1c-3.2-0.1-4.7,1.2-5.7,4.2c-5.4,14.7-11,29.2-16.4,43.9
			c-1,2.8-2.4,4-5.4,3.9c-6.8-0.2-13.7,0-20.5-0.1c-4.4,0-4.7-0.5-3.2-4.6c5.8-15.4,11.6-30.8,17.4-46.2
			c6.5-17.1,12.9-34.2,19.4-51.3c5.1-13.3,10.3-26.7,15.3-40c3.8-10.1,7.7-20.2,11.3-30.4c1.1-3,2.5-4.3,5.7-4.2
			c5.3,0.2,10.7,0.2,16,0.1c2.6,0,3.8,0.9,4.7,3.4c4.7,13,9.5,25.9,14.3,38.8c8,21.1,16.3,42.1,24.3,63.2
			c6.6,17.4,13,34.9,19.5,52.4c1.9,5.1,3.8,10.3,5.9,15.3c1,2.3,1,3.6-1.8,3.6c-7.7,0.1-15.3,0-23,0c-2.2,0-3.2-1.3-3.8-3.2
			c-2.8-7.6-5.7-15.3-8.6-22.9c-2.8-7.3-5.8-14.5-8.2-21.9c-1.1-3.4-2.9-3.9-5.9-3.9C1113.7,124.8,1105,124.8,1096.3,124.8
			L1096.3,124.8z M1097.2,101.2c5.7,0,11.3,0.1,17,0c3-0.1,3.6-1,2.8-3.7c-1.6-5.2-3.2-10.5-4.8-15.7c-4.3-13.6-8.6-27.2-12.9-40.8
			c-0.4-1.4-0.9-2.8-1.5-4.2c-0.2-0.3-1.6-0.4-1.9-0.1c-0.5,0.7-0.8,1.4-1,2.2c-3.1,10-6.1,20-9.1,30c-2.8,9.2-5.6,18.4-8.3,27.6
			c-1.1,3.7-0.5,4.5,3.4,4.5C1086.2,101.3,1091.7,101.2,1097.2,101.2z"/>
		<path class="st0" d="M632.7,88.4c0-27.5,0-55,0-82.5c0-5.8,0-5.8,5.7-5.8l94.5,0c4.6,0,4.6,0,4.7,4.8s0.1,9.3,0,14
			c0,4.5-0.3,4.8-4.9,4.8c-15.8,0-31.7,0-47.5,0c-7.3,0-14.7,0-22,0c-4.2,0-4.6,0.4-4.6,4.6c-0.1,14.2-0.1,28.3,0,42.5
			c0,4.4,0.4,4.7,5,4.7c22.2,0,44.3,0,66.5,0c1.2,0,2.3,0,3.5,0c2.7-0.1,4,0.9,4,3.7c-0.1,5.5,0,11,0,16.5c0,2.3-1,3.4-3.3,3.4
			c-1.2,0-2.3,0-3.5,0c-22,0-44,0-66,0c-6,0-6.2,0.2-6.2,6.1c0,13.8,0,27.7,0,41.5c0,6,0.2,6.2,6.1,6.2c21.8,0,43.7,0,65.5,0h4
			c2.2,0,3.4,1.1,3.4,3.4c0,5.7,0,11.3,0,17c0,2.4-1.3,3.3-3.5,3.2c-0.7,0-1.3,0-2,0h-93.4c-5.8,0-5.9,0-5.9-5.8
			C632.7,143.4,632.7,115.9,632.7,88.4z"/>
		<path class="st0" d="M306.7,176.7c-3.3,0-6.7-0.1-10,0c-2.1,0.2-4-1.2-4.5-3.2c-3.4-9.2-6.8-18.4-10.2-27.6
			c-2.2-5.9-4.7-11.7-6.7-17.6c-1-3.1-3-3.5-5.7-3.5c-6.3,0.1-12.7,0-19,0c-11.7,0-23.3,0.1-35-0.1c-3.5,0-5.4,1.1-6.6,4.5
			c-4.6,12.9-9.4,25.6-14.2,38.4c-0.4,1.1-0.8,2.2-1.2,3.3c-2.2,5.8-2.2,5.8-8.2,5.8c-5.8,0-11.7,0.1-17.5,0c-3.4-0.1-3.7-0.8-2.5-4
			c8.6-22.7,17.1-45.5,25.7-68.2c9.4-24.8,19-49.7,28.5-74.5c3.4-8.9,6.7-17.8,9.9-26.7c0.8-2.2,2-3.3,4.3-3.3
			c5.8,0.1,11.7,0.1,17.5,0c2.3,0,3.5,0.9,4.3,3.2c4.9,13.6,9.9,27.1,15,40.7c5.8,15.4,11.7,30.7,17.5,46.1
			c7.4,19.4,14.7,38.8,22.1,58.1c3.1,8.1,6.2,16.2,9.2,24.3c1.3,3.5,0.9,4-2.9,4.1C313.4,176.8,310,176.7,306.7,176.7z M243.4,35.9
			l-1.5,0.2c-1.4,4.1-2.8,8.1-4.2,12.2c-2,5.8-3.8,11.7-5.8,17.5c-3.4,10.2-7,20.4-10.4,30.7c-1.4,4.3-1.1,4.7,3.2,4.7
			c11.8,0.1,23.6,0.1,35.5,0c4.4,0,4.9-0.8,3.5-5.1c-1.6-4.9-3.1-9.8-4.8-14.7c-4.2-12.4-8.3-24.9-12.5-37.3
			C245.6,41.3,244.4,38.6,243.4,35.9z"/>
		<path class="st0" d="M526.7,473c0-27.5,0-55,0-82.5c0-5.6,0.1-5.7,5.5-5.7c29.3,0,58.7,0,88,0c5.4,0,5.4,0.1,5.4,5.2
			c0,4.3,0,8.7,0,13c0,5.1-0.1,5.2-5.4,5.2c-17,0-34,0-51,0c-4,0-8-0.1-12,0s-4.7,0.6-4.7,4.6c-0.1,14.2-0.1,28.3,0,42.5
			c0,4.5,0.5,4.9,4.9,4.9c7.8,0.1,15.7,0,23.5,0c13.3,0,26.7,0,40,0c4.7,0,4.7,0.1,4.8,4.8s0,9.3,0,14s-0.2,5-5.2,5c-20,0-40,0-60,0
			c-8,0-8,0-8,7.8c0,13.3,0,26.7,0,40c0,5,0.3,5.3,5.4,5.4c20,0,40,0,60,0c1.3,0,2.7,0,4,0c2.8-0.1,3.8,1.3,3.8,4
			c-0.1,5.3,0,10.7,0,16c0,4-0.1,4.1-4.3,4.1c-15.5,0-31,0-46.5,0c-14.3,0-28.7,0-43,0c-4.9,0-5,0-5-5
			C526.7,528.6,526.7,500.8,526.7,473z"/>
		<path class="st0" d="M1047.2,473c0-27.8,0-55.6,0-83.5c0-4.6,0.1-4.8,4.8-4.8c29.8,0,59.6,0,89.5,0c4.8,0,4.9,0.2,4.9,5.2
			c0,3.8,0,7.7,0,11.5c0,6.7,0,6.7-6.5,6.7c-19,0-38,0-57,0c-10.7,0-9.5-1.5-9.6,9.5c0,12.5,0,25,0,37.5c0,5,0.1,5,5,5
			c20.7,0,41.3,0,62,0c6,0,6,0,6,6.1c0,4,0,8,0,12c0,5.4-0.3,5.7-5.6,5.7c-14.2,0-28.3,0-42.5,0c-6.8,0-13.7,0-20.5,0
			c-4.3,0-4.5,0.2-4.5,4.6c0,14.7,0,29.3,0,44c0,4.5,0.2,4.6,5,4.6c20.3,0,40.7,0,61,0c1.2,0,2.3,0,3.5,0c2.2,0,3.6,1,3.6,3.2
			c0,6,0,12,0,18c0,3-2.1,2.9-4.2,2.9c-11.2,0-22.3,0-33.5,0c-18.8,0-37.6,0-56.5,0c-4.9,0-5-0.1-5-5
			C1047.2,528.6,1047.2,500.7,1047.2,473L1047.2,473z"/>
		<path class="st0" d="M497.7,431.5c-3.5,0-7.1,0.4-10.5-0.1c-2.6-0.3-5-1.5-6.9-3.2c-9.4-10-20.5-17-34-19.6
			c-14-2.8-28.5-0.6-41.1,6.2c-19.3,10.3-30.4,26.5-34,47.7c-2.8,16.4,0.9,31.8,9.9,45.8c6.8,10.9,16.8,19.6,28.5,24.8
			c19.5,8.6,38.3,7,56.2-4.1c4.8-3,8.7-7.1,13.2-10.5c1.6-1.2,3.7-2.5,5.6-2.6c7.8-0.3,15.7-0.2,23.5-0.1c3.6,0,4.2,1,2.1,4.2
			c-7.4,11.7-17.4,21.5-29.2,28.7c-9.5,5.5-19.9,9.3-30.7,11.2c-7.5,1.5-15.2,2-22.8,1.4c-15.2-1.4-29.6-5.8-42.4-14.6
			c-16.4-11.3-28.3-26.2-34.9-44.9c-7.2-20.5-7.1-41.1,1-61.5c9.1-23,25.5-39,47.9-48.9c12.9-5.7,26.5-7.4,40.5-6.7
			c12.9,0.6,25.4,4,36.9,9.9c14,7.1,25.8,17.9,34.1,31.3c0.4,0.7,0.7,1.5,1.1,2.2c1.4,2.5,0.3,3.4-2.1,3.4
			C505.7,431.5,501.7,431.5,497.7,431.5L497.7,431.5z"/>
		<path class="st0" d="M167.5,46.7c-6.3,0-11.9-0.4-17.5,0.1c-8.1,0.8-14.2-1.6-20.2-7.6c-14.9-14.8-33.5-19.4-53.8-15
			c-16.9,3.6-30.3,13-39.9,27.7C24.8,69.3,22.6,88,28.4,107.4c5.4,17.9,16.8,31.5,33.8,39.9c8.3,4.3,17.5,6.5,26.9,6.4
			c16.9-0.2,31-6.8,42.8-18.5c2.8-2.8,5.6-4.3,9.6-4.2c6.7,0.2,13.3,0,20,0.1c4.6,0.1,5.2,0.9,2.6,4.9c-7.3,11.4-17.1,21-28.6,28
			c-13.2,7.9-28.1,12.3-43.5,12.9c-15.6,0.6-31-3.1-44.6-10.6c-14.7-7.8-26.8-19.6-35-34c-3.3-5.7-5.7-12-7.9-18.2
			c-5.4-15-5.3-30.5-2.2-45.8c2.5-12.1,7.7-23.5,15.3-33.2c8.5-11.1,19.5-20.2,32-26.4c16.5-8.3,34-10.1,52-8
			c13.3,1.5,26,6.2,37.2,13.6C149.6,21.6,160.7,32.5,167.5,46.7z"/>
		<path class="st0" d="M832,485.4c0-23.3,0-46.7,0-70c0-7.3,0-7.3-7.5-7.3c-8.3,0-16.7,0-25,0c-4.7,0-5.1-0.5-5.1-5.2s0-9.7,0-14.5
			c0-2.5,1.1-3.7,3.6-3.7c1.2,0,2.3,0,3.5,0h84.9c1.2,0,2.3,0.1,3.5,0c2.8-0.1,3.8,1.2,3.7,4c-0.1,5.2-0.2,10.3,0,15.5
			c0.1,3.2-1.3,4-4.2,4c-8.3-0.1-16.7,0-25,0c-6.4,0-6.5,0-6.5,6.3c0,11.2,0,22.3,0,33.5c0,35.1,0,70.3,0,105.4c0,1.5-0.1,3,0,4.5
			c0.1,2.5-0.9,3.7-3.5,3.6c-6.5-0.1-13-0.1-19.5-0.1c-2.2,0-2.9-1.1-2.9-3.1c0-1.7,0-3.3,0-5C832,530.8,832,508.1,832,485.4z"/>
	</g>
</g>
</svg>
