<?xml version="1.0" encoding="utf-8"?>
<!-- Generator: Adobe Illustrator 21.1.0, SVG Export Plug-In . SVG Version: 6.00 Build 0)  -->
<svg version="1.1" id="Layer_1" xmlns="http://www.w3.org/2000/svg" xmlns:xlink="http://www.w3.org/1999/xlink" x="0px" y="0px"
	 viewBox="0 0 969.9 418.5" style="enable-background:new 0 0 969.9 418.5;" xml:space="preserve">
<style type="text/css">
	.st0{fill:#95989A;}
</style>
<title>Asset 4</title>
<g id="Layer_2">
	<g id="Layer_1-2">
		<path class="st0" d="M0,318.9l21.1,0.8c5.4,20.9,9.7,42.2,15.4,64.7l16.7-65h19.8c5.8,21.3,10.4,42.8,17,64.1l15.3-63.6
			c6.7-0.9,13.4-0.3,21.2-0.4l-25.7,95.9H79l-15.7-62.6h-0.8L47,415.4H25.2c-1.3-4.6-2.7-9.5-4-14.3c-6.7-25.3-13.3-50.7-20-76
			c-0.3-0.8-0.7-1.5-1.2-2.2V318.9z"/>
		<path class="st0" d="M835,0c-3.1,11.7-6.2,23.4-9.4,35c-6.5,23.3-13.1,46.6-19.7,69.9c-0.3,1.5-0.8,3-1.4,4.4c-1,2.6-3.9,4-6.5,3
			c-2.4-0.9-3.8-3.3-3.3-5.8c0.3-1.5,0.7-3,1.2-4.5c4-14.2,8-28.4,12-42.5c0.5-1.4,0.4-2.9-0.1-4.3l-38.9,53.3
			c-5.3-8.5-8.7-17.2-12.9-25.5s-8.4-16.9-13.6-25.2l-1.5,51.1l-50.3-21.5l-0.6,0.9l39,40c-9.4,2.1-18.5,1.2-27.4,1.9
			c-8.7,0.7-17.4,1-26.4,2.8c1,0.5,2,1.1,3,1.5c8.3,3.5,16.7,6.9,25,10.4c1.4,0.6,2.8,1.2,4.2,1.9c2.6,1.5,3.6,3.6,2.9,6
			c-0.8,2.7-3.5,4.3-6.2,3.6c-1.3-0.3-2.5-0.7-3.7-1.3c-23-9.5-45.9-19-68.9-28.6c-1.2-0.5-2.3-1-4.9-2.3c2.2-0.4,2.9-0.6,3.6-0.7
			c11.9-0.6,23.8-1.1,35.6-1.6c10.8-0.5,21.6-1,32.3-1.6c2.1-0.1,4.2-0.6,7.3-1.1l-59.4-61.2c14.5,4.7,28.2,11.1,42.2,17
			S716,86.8,730.6,93c1.8-26.7,0.7-52.6,1.9-79.8c5.5,8.5,8.7,16.9,12.8,24.9c4.3,8.2,8.3,16.5,12.4,24.8s8.1,16.5,12.5,25.3
			c1.7-2,2.8-3.2,3.8-4.6c19.2-26.3,38.3-52.7,57.5-79.1c0.9-1.4,1.6-2.9,2.2-4.5H835z"/>
		<path class="st0" d="M212.6,231.5c4.9,2.3,9.6,5.7,11.6,11.4c1.5,4.4,2.6,8.8,3.3,13.4c0.6,3.7,0.4,7.5,0.9,11.2
			c0.8,6,1.8,12,2.8,18.2h-24.1c-2.6-4.9-2.6-10.4-3.3-15.8c-0.5-4.6-0.8-9.2-1.5-13.8c-1.6-9.8-7-14.7-17-15
			c-8.6-0.3-17.1-0.1-26-0.1c-1.3,4.9-0.5,9.7-0.6,14.4c-0.2,5.1,0,10.1,0,15.2v15.3c-8.6,0.1-16.9,0.1-25,0
			c-1.1-5-1.4-105.4-0.4-114.8c1.4-0.2,2.8-0.4,4.3-0.5c19.4,0,38.8,0,58.2,0c8.9,0,16.9,2.6,23.6,8.6c13.4,11.9,11.9,34.9,3.3,43.9
			C219.8,226.1,216.1,228.6,212.6,231.5z M158.8,222.5c9,0,17.1,0,25.2,0c2,0,4,0,5.9-0.2c5.1-0.5,9.3-2.4,11.8-7.2
			c6.3-12.2-0.9-24.3-14.5-24.5c-7.9-0.1-15.9,0-23.8,0c-1.5,0-2.9,0.3-4.6,0.5V222.5L158.8,222.5z"/>
		<path class="st0" d="M112.4,223.9v61.3c-5.2,1.3-10.4,0.2-15.9,0.6l-2.7-12c-1.6,1.5-2.8,2.6-4,3.8c-7.2,7-16.8,11-26.8,11
			c-29.4,0.6-52-18.5-56.5-47.6C4,225,5.7,209.7,13.4,195.4c9.2-17,23.9-26,43.1-27.5c12.4-1,24.2,0.9,34.8,7.9
			c11.6,7.6,18,18.3,19.8,32.3c-4,1.5-8,0.6-11.8,0.7s-7.9,0-12.1,0c-0.9-2.1-1.7-4.1-2.6-6c-2.8-6.4-8.4-11-15.2-12.6
			c-12.6-3.3-25.2,1.7-31.9,12.8c-4.9,8.2-6.1,17.3-6.1,26.7c0,6.2,1.1,12.3,3.3,18.1c7.6,19.9,27.7,22.6,41.5,16.4
			c8.9-4,12.6-11.8,13.3-21.8H64.4v-18C69.3,223.2,100.7,222.8,112.4,223.9z"/>
		<path class="st0" d="M370.6,228.3c-0.6-11,1.8-22,7-31.8c7.6-14.5,19.2-23.9,35.4-27.2c17.3-3.4,33.7-1.8,48.4,9.1
			c12.2,9,18.5,21.6,21.3,36.1c2.4,12.2,1.6,24.7-2.2,36.5c-7.3,22.7-26.5,36.7-49.7,37.7c-14.3,0.6-27.6-2.3-39-11.3
			c-13-10.3-19.2-24.3-21-40.4C370.5,234,370.5,231.1,370.6,228.3z M458.1,228.5c-0.1-8.2-1.3-16.2-5.2-23.6
			c-5.6-10.7-14.6-15.6-26.4-15.5s-20.9,5.4-25.8,16.3c-2.3,5.2-3.8,10.7-4.5,16.4c-1.4,11.1,0.1,21.9,6,31.8
			c10.9,18.1,40.4,17.8,50.5-1.8C456.4,244.7,458.2,236.6,458.1,228.5L458.1,228.5z"/>
		<path class="st0" d="M301.5,167.9c27.8-0.9,51.4,17.6,55.9,49.7c1.5,9.6,1,19.4-1.4,28.8c-6.9,26.9-27.1,42.3-54.8,42.4
			c-34.1,0.1-54.6-24.5-56.5-54.3c-0.8-12.7,0.6-25.1,6.5-36.6c9.9-19.4,25.8-29.4,47.6-29.9C299.8,167.8,300.7,167.9,301.5,167.9z
			 M332.3,228.5c0.4-7.6-1-15.2-4.2-22.1c-5.3-11.5-15.3-17.7-28-17.1s-21.7,7-26.1,18.9c-1.9,5.2-3.1,10.5-3.6,16
			c-1.1,9.3,0.6,18.7,4.8,27c5.5,11,14.7,16.1,26.8,15.9s21-5.8,26.2-16.9C331.3,243.4,332.7,236,332.3,228.5L332.3,228.5z"/>
		<path class="st0" d="M866.8,197.7c0.4,2.3,0.7,4.5,0.8,6.8c0.1,17.2-0.1,34.4,0.1,51.5c0.1,7.5-2.8,13-8.7,17.5
			c-11.1,8.4-23.8,13.1-37.2,16.1c-26.3,5.9-51.1,1.3-74.8-10.8c-4.4-2.3-8.3-5.7-12.2-9c-3.1-2.7-4.4-6.4-4.4-10.6
			c0.1-18.9,0-37.9,0-56.8c0-2.5-0.1-5,2.5-6.4s5-0.5,7.3,1.2c30.1,21.6,62.7,22.8,96.8,11.6c7.5-2.6,14.5-6.5,20.6-11.6
			C860.4,195.2,863,194.4,866.8,197.7z M823.1,224c0.3,18.2,0.7,36,2.7,54.4l14.3-5.5l-2.7-52.8L823.1,224z M764.3,221.3
			c-2.8,6.3-3.9,43.7-1.6,53.7c4,1.7,8.2,3.4,12.9,3.8l0.9-54.5L764.3,221.3z M754.5,217.9l-13.3-6.7v50.3c5.1,5.5,6.5,6.5,11.5,7.8
			L754.5,217.9z M848.3,267.7c5.9-2.6,9.4-5.8,9.2-12.5c-0.4-12.7-0.1-25.5-0.1-38.2c0-1.7-0.2-3.4-0.4-5.9l-11.5,5.8L848.3,267.7z
			 M797.5,226.4c0,6.4,0,12.5,0,18.6s0,12.3,0.4,18.5s-0.9,12.2,1.1,18.4l5.3-0.4c-0.4-11.8-0.7-23.2-1.2-34.6
			c-0.2-5.5-0.7-11-1.3-16.4C801.6,228.6,801.8,226.3,797.5,226.4L797.5,226.4z M786.6,224.8c-0.7,1.7-1.5,2.9-1.6,4
			c-1.1,17.1-0.8,34.2-0.8,51.5l5.6,1.1c0.1-1.5,0.2-2.3,0.2-3.2c-0.3-15.4-0.5-30.8-0.8-46.2c0.1-1.5,0-3.1-0.2-4.6
			C788.8,226.6,787.7,226,786.6,224.8L786.6,224.8z M810.4,226c0.3,13.5,0.6,26.4,1.1,39.3c0.2,4.2,0.8,8.3,1.3,12.4
			c0.2,2,1.1,3.3,4.1,2.2c0-2.9,0.1-5.9,0-8.9c-0.3-5.7-0.9-11.4-1.1-17.1c-0.3-9-0.5-18-0.7-27c0-0.6-0.5-1.1-0.8-1.8
			c-1,0-1.8,0-2.7,0.1C811.1,225.5,810.7,225.7,810.4,226z"/>
		<path class="st0" d="M631.5,191.7v24.5h55.1v20.3h-55.1v27.8h60.9c1.5,3.8,0.7,7.3,0.9,10.7s0,6.6,0,9.8
			c-4.9,1.3-80.3,1.5-87.3,0.3V171.6c4.9-1.5,62.5-2,85.2-0.8c1.5,3.3,0.6,6.8,0.7,10.2s0,6.6,0,9.7c-0.4,0.4-0.5,0.5-0.7,0.7
			s-0.3,0.4-0.5,0.4C671.3,191.7,651.7,191.7,631.5,191.7z"/>
		<path class="st0" d="M541,249.6l25.3-78.7h26.6l-38.1,114.7h-29.1l-37.2-114.4c4.5-1.3,8.9-0.5,13.2-0.7c4.2-0.1,8.3,0,13.1,0
			l25.2,79.2L541,249.6z"/>
		<path class="st0" d="M919.8,25.7l9.3,8c-34.5,39.8-66.3,81.2-102.6,119.6c1.9,0.7,3.3,1.1,4.6,1.7c8,3.1,16,6,23.8,9.5
			c3.1,1.6,6,3.7,8.4,6.3c5.3,5.3,5.3,11.6-0.2,16.9c-2.9,2.7-6.1,5-9.6,6.9c-9.1,5.2-19,8-29.1,10.3c-24.8,5.5-49,2.7-72.5-6.6
			c-6-2.4-11.7-5.3-16.3-9.8c-6.7-6.4-6.9-12.7,0-18.6c4-3.4,8.5-6.3,13.3-8.4c21.4-9.6,43.8-12.7,67.5-9.6
			C848.8,108.6,885,68.3,919.8,25.7z M808.2,161.4c-21.6-1.6-41.7,1.7-60.3,12.1c-2.6,1.4-5.2,3.1-6.7,6.2c5.6,5.3,12.1,8.3,19,10.8
			c19.1,7,39.8,8.8,59.8,4.9c10.4-1.7,20.5-5.3,29.7-10.5c2.6-1.5,5.5-2.8,7.1-6.5c-11.4-9.5-24.9-13.4-39.1-16l-6.7,7.2
			c0.1,1.7,0.1,3.4,0,5.1c-0.7,4.7-3.7,8.7-8,10.7c-3.1,1.6-6.4,2-9.4-0.2s-3-5.9-2.1-9.1c1.3-5.3,5.6-9.3,11-10.2
			C805.1,165.4,807.3,164.9,808.2,161.4z"/>
		<path class="st0" d="M285.7,370.4c10.6,5,12.3,14,13.2,23.5c0.6,7,1.4,13.9,2.1,21.4c-2.6,1.1-6.1,0.3-9.5,0.4s-6.6,0-10.4,0
			c-0.7-3.3-1.4-6.2-1.8-9.2c-0.6-4.6-0.8-9.2-1.4-13.8c-1.1-9.7-5.9-14.1-15.6-14.2c-6.2-0.1-12.3,0-18.5,0
			c-0.9,0.1-1.7,0.2-2.6,0.5v36.4h-21.2v-95.4c1.6-0.1,3.3-0.4,5-0.4c14.5,0,29.1,0,43.6,0c5.5,0,11,0.6,16.1,3
			c9.8,4.5,14.7,12.5,15.2,22.9c0.5,9.8-2.7,18.3-11.8,23.5C287.7,369.2,287.2,369.5,285.7,370.4z M241.4,363.1c6.5,0,12.6,0,18.8,0
			c2.9,0,5.7-0.2,8.6-0.5c3.1-0.3,5.9-2,7.6-4.7c5.6-8.6,1-20.1-9.1-21.1c-8.4-0.9-17-0.2-25.8-0.2V363.1z"/>
		<path class="st0" d="M404.4,319.7c6.6-0.6,13.4-0.2,20.7-0.3c1,6.4,0.4,12.5,0.5,18.6c0.1,5.9,0,11.8,0,18.4c13,0.1,25.1,0.1,38,0
			V320c7.4-1,14.1-0.5,20.7-0.4c1.4,5.2,1.8,84,0.6,95.7c-6.8,0.9-13.7,0.3-21.1,0.5v-40c-4.8-1.5-30-1.8-38.3-0.5v40.1h-20.8
			C403.6,410.6,403.3,328.7,404.4,319.7z"/>
		<path class="st0" d="M541,317.4c27.5,0.1,45.2,15.3,49.3,39.4c2.1,12.3,1.1,24.1-4.1,35.5c-7.1,15.6-19.7,23.8-36.5,25.7
			c-6.8,0.8-13.7,0.3-20.3-1.6c-13.5-4-23.1-12.5-28.4-25.5c-6.4-15.4-6.3-31,0.2-46.2C509.3,326.1,524.2,317.7,541,317.4z
			 M569.5,368.2c0.3-7.4-1.3-14.7-4.8-21.2c-8.3-15.2-33.8-15.3-41.7,0.3c-6.6,12.9-6.8,26.3-1,39.5c4.2,9.4,12.2,13.5,22.3,13.4
			c9.9-0.1,17.2-4.6,21.6-13.6C568.7,380.8,569.9,374.5,569.5,368.2L569.5,368.2z"/>
		<path class="st0" d="M389.9,398.1v17.3h-72.1c-1.2-4.6-1.6-86.1-0.5-94.9c4.5-1.3,61.4-1.7,71.4-0.5v17.5
			c-16.5,0.2-32.9,0-49.7,0.2c-1.4,6.5-0.6,12.8-0.5,19.3c5.2,1.5,10.2,0.6,15.2,0.8s10.1,0,15.2,0h15.6c0.8,5.8,0.3,10.9,0.4,16.8
			h-46.4c-0.3,8.1-0.2,15.4,0,23.5L389.9,398.1z"/>
		<path class="st0" d="M861.3,320v17.4c-8.4,0.5-16.7,0.1-25,0.2c-8.1,0-16.2,0-24.9,0c-0.8,6.7-0.2,13-0.4,19.6
			c8.1,1.1,15.8,0.4,23.4,0.5c7.4,0.1,14.9,0,22.6,0V374c-4.8,1.5-9.9,0.5-14.8,0.7s-10.1,0-15.2,0h-15.5
			c-0.9,7.9-0.3,15.2-0.5,23.4h51.3v17.3h-72.1c-1.2-4.6-1.6-85.8-0.5-94.9C794.2,319.2,850.4,318.7,861.3,320z"/>
		<path class="st0" d="M773.6,348.6h-19.3c-0.5-0.6-1-0.9-1-1.2c-2.7-9.4-6.1-12.3-15.7-12.9c-2.9-0.2-5.7,0-8.5,0.5
			c-3.6,0.5-6.6,2.8-8.1,6.1c-2,4.4-0.9,8.4,3.3,10.7c2.3,1.2,4.8,2.2,7.3,2.9c6.5,1.9,13.2,3.5,19.7,5.3c3.4,0.9,6.7,2.1,10,3.5
			c21.4,9.2,19.2,36.3,4.9,46.8c-14.8,11-44.2,10.8-58.6-0.8c-7.9-6.4-11.5-14.7-11.6-25c3.6-1.2,7.1-0.5,10.5-0.6
			c3.3-0.1,6.5,0,9.9,0c0.3,1.3,0.5,2.2,0.6,3c0.9,6.9,5,11.2,11.3,13.2c6.5,2.1,13.6,2,20.1-0.3c4.7-1.6,7.6-4.8,7.8-9.6
			c0.2-4.7-2.8-7.9-6.9-9.6c-4.7-1.9-9.6-3.2-14.4-4.7s-9.8-2.5-14.6-4c-2.7-0.9-5.4-2-7.9-3.3c-18.5-9.2-15.7-33.2-4-42.2
			c5-4,10.9-6.7,17.2-7.9c11.6-2,22.8-1.3,33.4,4.3C769.2,328,774.1,336.9,773.6,348.6z"/>
		<path class="st0" d="M602.1,319.7h21c0.2,2.1,0.4,4,0.4,5.9c0,17.4,0,34.8,0.1,52.2c0,3.3,0.4,6.6,1,9.8
			c1.3,6.8,5.8,10.9,12.5,11.8c4.4,0.6,8.8,0.6,13.1,0c5.9-0.9,10.2-4.3,11.4-10.4c0.8-3.4,1.2-6.9,1.2-10.4
			c0.1-17.2,0.1-34.4,0.1-51.6v-6.8c3.6-1.6,7.1-0.7,10.5-0.8s6.6,0,10.3,0c0.3,1.6,0.5,3.1,0.6,4.7c0,18.3,0.1,36.6,0,54.9
			c0,4.6-0.5,9.2-1.6,13.7c-2.7,11.4-9.9,19.1-20.9,22.7c-12.9,4.2-26.1,4.2-38.9-0.6c-13.5-5.1-19.1-16.1-20.6-29.7
			c-0.2-2.6-0.3-5.3-0.2-7.9c0-16.8,0-33.5,0-50.3L602.1,319.7z"/>
		<path class="st0" d="M146.8,394.8l-7.4,20.6h-21.7l36.4-95.9h21.7l35.9,96h-22.1l-7.4-20.6L146.8,394.8z M165.3,345.6l-1.2,0.1
			l-11.6,32.5h23.9L165.3,345.6z"/>
		<path class="st0" d="M873.9,145.3c-1.9,4.4-4.8,7.5-9.4,8.8c-0.8,0.3-1.7,0.5-2.6,0.6c-4.8,0.7-9.3-1.4-10.6-4.8
			c-1.5-3.8,0.8-8.4,5.3-10.9c5-2.8,10.1-2.8,15.4,0.3c31.7-13.1,63.9-25.5,97.3-35.9c1.1,4,0.6,7.8,0.2,12.3
			c-15.8,5.3-31.5,10.8-47.4,15.7C906.3,136.3,890.3,140.6,873.9,145.3z"/>
	</g>
</g>
</svg>
