<svg xmlns="http://www.w3.org/2000/svg" viewBox="0 0 260.93 383.24"><defs><style>.cls-1{fill:#95989a;}</style></defs><title>Asset 6</title><g id="Layer_2" data-name="Layer 2"><g id="Layer_1-2" data-name="Layer 1"><path class="cls-1" d="M119.12,191.13c-1.31-7.06-2.27-14.18-4.73-21C108.57,154,96.88,144,81.17,138.26c-15-5.51-30.53-6.69-46.33-5.86-10.5.55-21,1.36-31.67,3.86.25-3.09,2.38-4.73,3.76-6.43C10,126,13,121.95,16.83,118.7c3.1-2.63,4-5.81,2.67-9.78-1.06-3.12-.89-6.51-1.31-9.75C16.51,86,16.81,72.68,17.11,59.41c.09-3.92,1.1-7.83,1-12.24a103,103,0,0,1,15.3,1.08c8.19.93,16.41,2.15,24.33,4.77,5.67,1.88,11.39,3.51,16.85,6.09,6.67,3.15,12.86,7,19.16,10.79,2,4.81-3.26,3.29-4.79,5.33a10.24,10.24,0,0,0,3,5.2C117.33,75.28,143,74,168.38,78.81c1.72-2.27,2-4.4,2.74-6.63l-4.61-1.33.66-1.71c5.66-3,10.82-6.75,16.58-9.6,9.82-4.84,20.26-7.49,30.87-9.65a94.19,94.19,0,0,1,27.94-1.56c1.46,1.67.33,3.52.44,5.25.26,3.93,0,7.33,0,11.51,0,5-.11,5.73-.12,8.57,0,5.65.58,11.29.09,16.94-.62,7-1.16,14-2.8,20.89a5.68,5.68,0,0,0,1.88,6.19c5.56,4.8,9.78,10.81,14.41,16.44a5,5,0,0,1,.48,1.55c-3.8,1.35-7.29-.48-10.72-1-4.42-.61-8.9-1.12-13.3-1.45-11.88-.89-23.86-1.5-35.73.09a71.39,71.39,0,0,0-32.33,12.44c-5.31,3.77-10.23,7.84-13.77,13.52-3.68,5.9-5.84,12.35-8.16,18.79-1.54,4.27-1.17,8.87-2.81,13.07C133.15,187.88,126.14,188.37,119.12,191.13ZM165.92,87a3.78,3.78,0,0,0-.5,0c-8.94,1.2-15.84,6.61-22.93,11.46-2,1.37-1,4.76,1.33,5.74a5.41,5.41,0,0,0,5.21-.7c3.13-1.9,6.39-3.61,9.37-5.71,5-3.52,9.8-3.38,14.8-.06,3.19,2.11,6.46,4.13,9.83,5.92,2.11,1.12,4.42.77,5.7-1.42s.37-4.17-1.8-5.46c-4.14-2.46-8.27-5-12.47-7.32A17.74,17.74,0,0,0,165.92,87Zm-53,26.42c2.61.32,4.29-.65,5-2.72a3.83,3.83,0,0,0-1.64-4.76,11.25,11.25,0,0,0-2.23-1.08,54,54,0,0,0-39.85-.05,10.91,10.91,0,0,0-2.66,1.33,3.85,3.85,0,0,0-1.26,4.9,3.78,3.78,0,0,0,4.42,2.44,23.41,23.41,0,0,0,4.25-1.38,38,38,0,0,1,30,0C110.3,112.66,111.74,113.06,112.88,113.45Zm54.75,8.17c.74,1.27,1.32,2.48,2.09,3.55a9.36,9.36,0,0,0,16-1.68c1.92-4.23,1.12-6-3.42-7.31-3.87-1.08-7.88-1.26-11.86-1.62-8.29-.75-16.57-.37-24.77-.43-.82,5.69.69,7.75,5.58,8a29.43,29.43,0,0,0,7.46-.51A23.26,23.26,0,0,1,167.62,121.62ZM73.48,119c.11,6.17,1.42,7.73,6.41,7.94a33.33,33.33,0,0,0,5.45-.4c3.61-.45,7.2-.88,10.81,0a30.62,30.62,0,0,0,1.36,2.78A9.41,9.41,0,0,0,111,132a8.47,8.47,0,0,0,3.84-7.67c-.3-3-3.46-3.1-5.82-3.75-.16,0-.32-.11-.48-.14C97,118.42,85.43,118.92,73.48,119Z"/><path class="cls-1" d="M44.74,357.75c-2.52,1.16-3.87,2.9-5.48,4.31-12.59,11-27.45,7-36.39-3.95-3.75-4.59-3.74-10.34-.43-15.84C5.13,337.8,9.1,334.52,13.37,331c-3-3.75-5.87-7.36-8.75-11-3.89-4.85-3.4-8.06,1.94-11.41s11.54-5.1,17.68-6.56C40.46,298.25,57,296.45,73.56,295c28.43-2.55,56.91-2.64,85.37-1.68,25.77.87,51.5,2.85,76.72,8.82,5.66,1.34,11.28,2.92,16.39,5.8,6.84,3.86,7.57,6.85,2.83,12.91-25.08,32-57.41,52.74-97.55,59.86-38.22,6.78-74.37.06-107.79-20.1C48,359.65,46.41,358.74,44.74,357.75Zm208.18-40.62c-1.49-2.36-3.71-3.06-5.85-3.88a82.24,82.24,0,0,0-15.44-3.91c-15.76-2.77-31.67-4-47.63-5.1q-28.18-1.86-56.4-1.72c-26.31.1-52.6,1-78.78,3.89-11.41,1.24-22.8,2.7-33.85,6-3,.88-6,1.76-8.35,4.63,4.83,4.49,10.78,6.07,16.6,7.71,12.46,3.51,25.27,5,38.12,6.32,16.9,1.77,33.86,2.54,50.83,2.75,25.48.31,50.95.17,76.39-1.84,16-1.27,32-3.07,47.54-7.22C242,323.17,247.94,321.38,252.92,317.13Zm-233.52,20c-2.7,3.07-5.08,5.63-7.31,8.32-2.94,3.54-3,7.39.31,10.18,5.6,4.72,10.49,6.11,17,1.24,2.09-1.55,3.88-3.5,6.17-5.59C30.11,346.83,25.06,342.6,19.4,337.12Z"/><path class="cls-1" d="M167.18,69.12l-.66,1.71,4.61,1.33c-.77,2.24-1,4.36-2.74,6.63-25.41-4.79-51-3.52-76.46,1.64a10.24,10.24,0,0,1-3-5.2c1.53-2,6.78-.52,4.79-5.33L73.08,6.73c4.56-3.58,10.1-3.86,15.37-4.54C107.22-.24,126.12-.24,145,.27c9.33.25,18.71.7,28,2.62,3,.62,6.21.69,9.21,1.45,3.7.94,4.19,2.29,3.07,6.19-5.29,18.32-11.59,36.31-17.67,54.38C167.08,66.3,166.28,67.63,167.18,69.12Z"/><path class="cls-1" d="M16.19,213c1.1,4.45,4.27,6.67,9.66,7,3.25.22,6.46-.19,9.8.67a9.22,9.22,0,0,1,7,6.8,26,26,0,0,1,1.42,8.21c-.19,8-.26,16,0,24a35.19,35.19,0,0,1-2.33,14c-1.85,4.72-6.33,7.5-11,9.21a35.7,35.7,0,0,1-12.54,2.19C10.58,285.08,4.94,282,3.88,273q0-14,0-28c.17-.47.28-1.31.52-1.35,3.64-.52,7.14-2.47,10.81-1.34,1,1.39.79,2.77.81,4.07,0,2.83,0,5.66,0,8.49,0,5.85,1.51,8.63,4.75,9.09,5.07.73,10.09-2.15,11.46-6.95,1.62-5.68.86-11.55.54-17.31-.17-3.08-2.67-4.65-5.9-4.71a63.17,63.17,0,0,1-11-.93A11.41,11.41,0,0,1,7,226.8,32.38,32.38,0,0,1,4,214.45c0-9.66.13-19.32-.06-29C3.75,173.26,10.26,168,21.35,169.1a30.28,30.28,0,0,1,14.68,5,17.32,17.32,0,0,1,8,14.53c.14,6.82,0,13.65,0,20.41-3.22,2.14-3.22,2.14-10.89.58.4-4.2-.89-8.33-1.06-12.59a7.26,7.26,0,0,0-6.87-7c-1.66-.07-3.33,0-5,0-2-.06-3.14.79-3.32,2.83-.91.72-.82,1.75-.82,2.73Q16.11,204.32,16.19,213Z"/><path class="cls-1" d="M215.21,177.45c5.31-.83,10.18-2.19,15.52-2.4,3.07,10.86,4.2,21.93,7.56,33.38,2.57-5.65,3.24-11,4.7-16,1.72-6,3.43-12,4.83-18.05.36-1.54,1-2.69,2.22-2.77,3.54-.21,6.92-2.09,10.74-1.27.54,3.76-1.14,6.93-2,10.14-4.05,14.78-8.39,29.47-12.56,44.22a8.38,8.38,0,0,0,.06,4.92c1.49,4.49,2.44,9.16,3.91,13.63,2.65,8.07,4.13,16.46,7,24.43,1.49,4.18,1.9,8.6,3.55,12.69a7.22,7.22,0,0,1,.15,3.07c-4.36,1.74-8.41-.7-12.57-.74-.29,0-.61-.47-.87-.43-7.15.93-8.28-4-9.22-9.28-1.68-9.5-3.55-19-5.78-28.54-4.48,10.38-5.8,21.71-9.32,32.26a17.59,17.59,0,0,1-6.63.14c-1.61-1.54-1.37-3.06-.85-5,3.6-13.62,6.83-27.34,10.58-40.91,1.05-3.81.35-7.12-.54-10.61q-5.19-20.2-10.4-40.4A11.76,11.76,0,0,1,215.21,177.45Z"/><path class="cls-1" d="M211.26,255A42.06,42.06,0,0,1,209,266.56c-3.14,9.32-13.92,11.58-21.1,4.83-5.8-5.45-7.4-12.52-7.61-19.66-.52-17.64-.46-35.31-.13-53,.12-6.39,2-12.52,7-17.31,7-6.68,19.73-3.91,22.6,5.15.64,2,.93,4.15,1.38,6.22Zm-10.09-4c1.15-.61.78-1.71.78-2.63q0-22.36,0-44.72c0-.92.38-2-.78-2.63-.91-4.41-1.54-5-5.6-5s-5.12.83-6.42,6.08q0,24.91,0,49.82c2.14,4.82,3.81,5.93,7.91,5.27C200.66,256.64,201,253.91,201.17,251Z"/><path class="cls-1" d="M52.41,176.26c3.76,1.11,7.52.58,11.32,2.74v77.42c5.18,1.49,9.85,0,15.25-.53,0,5.2.07,10,0,14.73,0,2.35-2.33,3-3.85,3.22-6.5.76-12.89,2.08-19.34,3.08a24.39,24.39,0,0,1-3.35,0Z"/><path class="cls-1" d="M106.15,260c-1,3.93-1.58,7.91-5.22,10.69-4,3.09-9.7,3.91-13.09,1.54s-4.17-6.35-4.68-10c-.6-4.24-.15-8.64-.15-13,0-2.25,1.11-3.4,3.4-3.28,1.64.08,3.31-.28,5.14.41.91,2.11.41,4.47.41,6.73,0,2.5.95,4.46,3.37,4.69,2.61.25,4.28-1.69,4.59-4.15a93.06,93.06,0,0,0,.19-14.37c-1.94-.7-3.4,0-5,.38-3.6.93-8,0-10.12-5.58A23,23,0,0,1,83.26,226c-.06-13,0-26,0-39a10,10,0,0,1,.34-1.69c2.63-.61,5.15-.74,7.49,1,0,10.4,0,20.8.1,31.2,0,1.59-.55,3.32.67,4.76,0,2,.53,3.65,2.92,3.81,2,.13,3.06-.88,3.36-2.8,1.16-1.25.78-2.84.79-4.26,0-11.43,0-22.86-.05-34.29,2.41.34,5-.52,7.22,1.15Q106.13,223,106.15,260Z"/><path class="cls-1" d="M165.13,265.24c-.1,1.56-.41,2.67-2.44,2.86-2.23.21-4-1.07-6.08-1.21a5.11,5.11,0,0,1-.77-3.32q.08-38.19.13-76.38c6.63-1.35,13.16-3.33,20-2.92l.06,14.39c-2.58,1.8-5.57,2.15-8.58,2.38-1.56.12-3.23-.57-4.63.67-1.89,5.24-.35,10.65-.79,16-.09,1-.48,2.35.88,3.05l10.49.54c1.12,4.11.42,8.21.5,12.25,0,1.84-1.27,2.49-3,2.52s-3.29.11-4.93.17c-1.67.5-1,1.9-1,2.88C165,247.81,165.1,256.52,165.13,265.24Z"/><path class="cls-1" d="M131.13,209.52c.5,1.43-.71,2.16-1.23,3.13-3.3,6.08-2.74,10.92,2,15.89,2.41,2.53,4.94,4.94,7.39,7.43a23.8,23.8,0,0,1,6.26,11.7c1.77,7.73-1.76,14.16-9.84,17.23S126,268,130.48,277.79c.95,2.06,2,4.15,1.49,7-2.76-2.94-5.52-5.52-7.86-8.43-5.06-6.29-3.88-13,2.86-17.46,1.38-.91,2.89-1.63,4.32-2.46,4.14-2.42,4.84-4.59,3-9-1.48-3.64-4.33-6.27-6.74-9.2a30.33,30.33,0,0,1-5.9-9.73,16.36,16.36,0,0,1,5.19-18C128.09,209.49,129.32,208,131.13,209.52Z"/><path class="cls-1" d="M119.12,191.13c7-2.76,14-3.25,21,0v9.14c-5.47,2-14.86,2.35-21,.93Z"/><path class="cls-1" d="M156,187.19q-.06,38.19-.13,76.38a5.11,5.11,0,0,0,.77,3.32c-2.44-.66-1.5-2.68-1.51-4.14-.07-11.76,0-23.53,0-35.29,0-12.1,0-24.19,0-36.29C155.12,189.85,154.29,188.2,156,187.19Z"/><path class="cls-1" d="M106.15,260q0-37-.05-74c1.34,1,.81,2.43.81,3.67q.05,33.34,0,66.68C106.91,257.57,107.46,259,106.15,260Z"/><path class="cls-1" d="M211.26,255l-.13-62.17c1.21,1,.79,2.45.79,3.72q0,27.59,0,55.19C211.92,252.85,212.3,254.09,211.26,255Z"/><path class="cls-1" d="M98.88,184.84c0,11.43.09,22.86.05,34.29,0,1.42.37,3-.79,4.26,0-11.61-.06-23.22,0-34.83C98.11,187.29,97.67,185.87,98.88,184.84Z"/><path class="cls-1" d="M91.87,222.38c-1.22-1.44-.66-3.16-.67-4.76-.08-10.4-.08-20.8-.1-31.2,1.28.77.84,2.05.84,3.14Q91.94,206,91.87,222.38Z"/><path class="cls-1" d="M165.13,265.24c0-8.72-.09-17.44-.06-26.16,0-1-.72-2.38,1-2.88,0,8.11,0,16.22-.13,24.32C165.88,262.11,166.52,263.86,165.13,265.24Z"/><path class="cls-1" d="M3.88,245.05v28c-.84-.52-.77-1.37-.77-2.17q0-11.81,0-23.62C3.11,246.42,3,245.57,3.88,245.05Z"/><path class="cls-1" d="M16.19,213q-.07-8.71-.13-17.43c0-1-.1-2,.82-2.73,0,5.83.06,11.65,0,17.48C16.93,211.28,17.3,212.38,16.19,213Z"/><path class="cls-1" d="M162.95,220.73c-1.36-.7-1-2-.88-3.05.44-5.31-1.09-10.73.79-16Z"/><path class="cls-1" d="M176.08,198.67,176,184.28A24,24,0,0,1,176.08,198.67Z"/><path class="cls-1" d="M181,118.9c2,1.22,3.66,2.34,1.88,4.64a2.13,2.13,0,0,1-3.42.21C177.52,121.72,178.71,120.27,181,118.9Z"/><path class="cls-1" d="M109.49,129.16a2.37,2.37,0,0,1-2.68-2.41,2.44,2.44,0,0,1,2.32-2.72,2.51,2.51,0,0,1,2.69,2.43A2.54,2.54,0,0,1,109.49,129.16Z"/></g></g></svg>